{"glyphs":{"0":{"ha":800,"x_min":0,"x_max":0,"o":"m 735 486 b 399 -18 735 154 643 -18 b 64 486 156 -18 64 154 b 399 990 64 817 156 990 b 735 486 643 990 735 817 m 263 486 b 399 165 263 279 281 165 b 536 486 518 165 536 279 b 399 807 536 692 518 807 b 263 486 281 807 263 692 "},"1":{"ha":474,"x_min":0,"x_max":0,"o":"m 31 907 l 214 972 l 374 972 l 374 0 l 181 0 l 181 779 l 79 744 "},"2":{"ha":751,"x_min":0,"x_max":0,"o":"m 58 69 b 488 690 58 347 488 511 b 363 810 488 763 440 810 b 225 696 283 810 243 757 l 54 746 b 371 990 76 843 160 990 b 688 699 558 990 688 876 b 290 171 688 438 325 313 l 699 171 l 699 0 l 58 0 "},"3":{"ha":751,"x_min":0,"x_max":0,"o":"m 371 -18 b 49 221 160 -18 74 118 l 217 274 b 367 161 236 213 283 161 b 503 294 447 161 503 214 b 343 426 503 371 449 426 l 236 426 l 236 578 l 438 800 l 86 800 l 86 972 l 661 972 l 661 800 l 457 586 b 701 303 579 574 701 475 b 371 -18 701 114 561 -18 "},"4":{"ha":817,"x_min":0,"x_max":0,"o":"m 38 367 l 436 972 l 664 972 l 664 393 l 778 393 l 778 226 l 664 226 l 664 0 l 471 0 l 471 226 l 38 226 m 471 393 l 471 754 l 239 393 "},"5":{"ha":751,"x_min":0,"x_max":0,"o":"m 358 469 b 243 417 300 469 264 439 l 81 444 l 101 972 l 650 972 l 650 800 l 275 800 l 267 601 b 406 635 310 625 356 635 b 710 331 569 635 710 511 b 379 -18 710 128 572 -18 b 49 221 171 -18 75 118 l 218 274 b 369 161 236 207 288 161 b 513 315 454 161 513 226 b 358 469 513 392 464 469 "},"6":{"ha":781,"x_min":0,"x_max":0,"o":"m 399 165 b 531 319 483 165 531 222 b 394 472 531 407 485 472 b 254 396 338 472 289 442 b 399 165 254 275 267 165 m 453 990 b 681 926 565 990 640 951 l 604 768 b 465 807 576 786 532 807 b 264 585 303 807 268 671 b 438 647 293 610 351 647 b 724 325 606 647 724 531 b 397 -18 724 121 594 -18 b 56 424 131 -18 56 168 b 453 990 56 725 146 990 "},"7":{"ha":708,"x_min":0,"x_max":0,"o":"m 676 972 l 676 824 l 358 0 l 147 0 l 469 800 l 35 800 l 35 972 "},"8":{"ha":783,"x_min":0,"x_max":0,"o":"m 390 -18 b 50 286 183 -18 50 100 b 183 517 50 406 122 483 b 76 714 136 547 76 615 b 392 990 76 874 200 990 b 707 714 582 990 707 875 b 599 517 707 615 647 547 b 733 286 663 482 733 406 b 390 -18 733 101 596 -18 m 392 419 b 250 289 306 419 250 365 b 392 160 250 217 300 160 b 533 289 485 160 533 217 b 392 419 533 365 478 419 m 392 814 b 271 703 313 814 271 764 b 392 590 271 636 319 590 b 513 703 463 590 513 636 b 392 814 513 764 469 814 "},"9":{"ha":781,"x_min":0,"x_max":0,"o":"m 381 807 b 249 653 296 807 249 750 b 385 500 249 565 294 500 b 525 576 442 500 490 531 b 381 807 525 697 513 807 m 326 -18 b 99 46 214 -18 139 21 l 175 204 b 314 165 203 186 247 165 b 515 388 476 165 511 301 b 342 325 486 363 428 325 b 56 647 174 325 56 442 b 382 990 56 851 185 990 b 724 549 649 990 724 804 b 326 -18 724 247 633 -18 "}," ":{"ha":344,"x_min":0,"x_max":0,"o":""},"#":{"ha":915,"x_min":0,"x_max":0,"o":"m 171 247 l 36 247 l 65 392 l 201 392 l 239 578 l 104 578 l 133 724 l 269 724 l 322 972 l 482 972 l 431 724 l 585 724 l 636 972 l 797 972 l 746 724 l 879 724 l 850 578 l 715 578 l 678 392 l 811 392 l 782 247 l 647 247 l 596 0 l 435 0 l 486 247 l 332 247 l 281 0 l 119 0 m 517 392 l 554 578 l 400 578 l 363 392 "},"%":{"ha":1117,"x_min":0,"x_max":0,"o":"m 833 972 l 1019 972 l 283 0 l 97 0 m 511 758 b 275 526 511 631 411 526 b 39 758 139 526 39 631 b 275 990 39 886 139 990 b 511 758 411 990 511 886 m 185 758 b 275 665 185 708 219 665 b 365 758 331 665 365 708 b 275 851 365 808 331 851 b 185 758 219 851 185 808 m 1076 211 b 840 -21 1076 83 976 -21 b 604 211 704 -21 604 83 b 840 443 604 339 704 443 b 1076 211 976 443 1076 339 m 750 211 b 840 118 750 161 785 118 b 931 211 896 118 931 161 b 840 304 931 261 896 304 b 750 211 785 304 750 261 "},"'":{"ha":276,"x_min":0,"x_max":0,"o":"m 60 972 l 215 972 l 208 642 l 67 642 "},"(":{"ha":461,"x_min":0,"x_max":0,"o":"m 253 53 b 372 -65 253 -18 285 -65 l 372 -231 b 63 63 161 -231 63 -128 l 63 817 b 372 1111 63 1007 161 1111 l 372 946 b 253 828 285 946 253 899 "},")":{"ha":463,"x_min":0,"x_max":0,"o":"m 208 828 b 89 946 208 899 176 946 l 89 1111 b 399 817 300 1111 399 1007 l 399 63 b 89 -231 399 -128 300 -231 l 89 -65 b 208 53 176 -65 208 -18 "},"*":{"ha":603,"x_min":0,"x_max":0,"o":"m 115 900 l 235 832 l 235 972 l 365 972 l 365 832 l 486 900 l 550 790 l 429 722 l 551 656 l 486 544 l 365 614 l 365 474 l 235 474 l 235 614 l 115 544 l 50 654 l 171 722 l 50 790 "},"+":{"ha":764,"x_min":0,"x_max":0,"o":"m 50 510 l 301 510 l 301 776 l 463 776 l 463 510 l 714 510 l 714 356 l 463 356 l 463 88 l 301 88 l 301 356 l 50 356 "},",":{"ha":339,"x_min":0,"x_max":0,"o":"m 61 -129 b 147 -17 90 -110 140 -61 b 51 99 85 -3 51 49 b 168 218 51 164 103 218 b 290 90 235 218 290 172 b 136 -212 290 -36 221 -150 l 61 -129 "},"-":{"ha":513,"x_min":0,"x_max":0,"o":"m 63 508 l 449 508 l 449 336 l 63 336 "},".":{"ha":340,"x_min":0,"x_max":0,"o":"m 169 -18 b 51 99 103 -18 51 35 b 169 218 51 164 103 218 b 288 99 236 218 288 164 b 169 -18 288 35 236 -18 "},"/":{"ha":628,"x_min":0,"x_max":0,"o":"m 439 1042 l 607 1042 l 189 -150 l 21 -150 "},":":{"ha":339,"x_min":0,"x_max":0,"o":"m 169 -18 b 51 99 103 -18 51 35 b 169 218 51 164 103 218 b 288 99 236 218 288 164 b 169 -18 288 35 236 -18 m 169 475 b 51 592 103 475 51 528 b 169 711 51 657 103 711 b 288 592 236 711 288 657 b 169 475 288 528 236 475 "},";":{"ha":339,"x_min":0,"x_max":0,"o":"m 169 475 b 51 592 103 475 51 528 b 169 711 51 657 103 711 b 288 592 236 711 288 657 b 169 475 288 528 236 475 m 61 -129 b 147 -17 90 -110 140 -61 b 51 99 85 -3 51 49 b 168 218 51 164 103 218 b 290 90 235 218 290 172 b 136 -212 290 -36 221 -150 l 61 -129 "},"<":{"ha":706,"x_min":0,"x_max":0,"o":"m 63 503 l 643 765 l 643 599 l 254 435 l 643 269 l 643 101 l 63 364 "},"=":{"ha":764,"x_min":0,"x_max":0,"o":"m 50 635 l 714 635 l 714 482 l 50 482 m 50 372 l 714 372 l 714 218 l 50 218 "},">":{"ha":706,"x_min":0,"x_max":0,"o":"m 643 364 l 63 101 l 63 269 l 451 435 l 63 599 l 63 765 l 643 503 "},"?":{"ha":669,"x_min":0,"x_max":0,"o":"m 211 344 b 433 710 211 532 433 575 b 317 814 433 764 390 814 b 193 728 240 814 208 764 l 40 796 b 319 990 67 872 146 990 b 629 721 499 990 629 879 b 397 333 629 513 397 468 l 397 276 l 211 276 m 304 -18 b 186 99 238 -18 186 35 b 304 218 186 164 238 218 b 422 99 371 218 422 164 b 304 -18 422 35 371 -18 "},"@":{"ha":1257,"x_min":0,"x_max":0,"o":"m 789 181 b 607 86 772 154 715 86 b 346 360 451 86 346 199 b 601 633 346 518 454 633 b 747 578 686 633 733 592 l 747 625 l 890 625 l 890 296 b 961 211 890 242 911 211 b 1065 419 1022 211 1065 283 b 636 814 1065 671 888 814 b 196 367 369 814 196 618 b 647 -75 196 103 374 -75 b 910 -6 744 -75 839 -47 l 974 -108 b 647 -201 897 -161 785 -201 b 50 363 297 -201 50 31 b 639 939 50 701 306 939 b 1206 426 974 939 1206 719 b 949 86 1206 213 1104 86 b 789 181 869 86 814 125 m 500 360 b 625 219 500 278 553 219 b 751 361 694 219 751 271 b 625 499 751 438 701 499 b 500 360 554 499 500 443 "},"A":{"ha":917,"x_min":0,"x_max":0,"o":"m 293 250 l 208 0 l 11 0 l 356 972 l 561 972 l 906 0 l 708 0 l 624 250 m 458 763 l 346 413 l 572 413 "},"B":{"ha":794,"x_min":0,"x_max":0,"o":"m 93 972 l 401 972 b 721 715 594 972 721 872 b 604 506 721 626 675 544 b 753 285 696 467 753 385 b 419 0 753 96 599 0 l 93 0 m 400 579 b 521 693 468 579 521 625 b 397 803 521 760 471 803 l 289 803 l 289 579 m 408 168 b 550 296 488 168 550 217 b 408 421 550 376 488 421 l 289 421 l 289 168 "},"C":{"ha":886,"x_min":0,"x_max":0,"o":"m 549 -18 b 42 486 244 -18 42 200 b 549 990 42 772 256 990 b 838 901 678 990 775 947 l 782 729 b 549 807 735 763 647 807 b 246 486 372 807 246 669 b 549 165 246 300 372 165 b 790 244 654 165 744 213 l 846 74 b 549 -18 788 31 690 -18 "},"D":{"ha":910,"x_min":0,"x_max":0,"o":"m 93 972 l 351 972 b 867 486 669 972 867 790 b 351 0 867 175 668 0 l 93 0 m 358 169 b 663 486 543 169 663 276 b 358 801 663 690 543 801 l 289 801 l 289 169 "},"E":{"ha":668,"x_min":0,"x_max":0,"o":"m 93 972 l 593 972 l 593 796 l 289 796 l 289 579 l 550 579 l 550 406 l 289 406 l 289 175 l 606 175 l 606 0 l 93 0 "},"F":{"ha":653,"x_min":0,"x_max":0,"o":"m 93 972 l 590 972 l 590 796 l 289 796 l 289 567 l 553 567 l 553 392 l 289 392 l 289 0 l 93 0 "},"G":{"ha":1038,"x_min":0,"x_max":0,"o":"m 546 990 b 929 829 750 990 879 889 l 806 701 b 554 808 776 733 693 808 b 246 486 364 808 246 667 b 554 165 246 288 379 165 b 788 242 690 165 767 221 l 788 361 l 603 361 l 603 526 l 971 526 l 971 142 b 546 -18 867 53 750 -18 b 42 486 271 -18 42 179 b 546 990 42 765 250 990 "},"H":{"ha":982,"x_min":0,"x_max":0,"o":"m 93 972 l 289 972 l 289 578 l 693 578 l 693 972 l 889 972 l 889 0 l 693 0 l 693 401 l 289 401 l 289 0 l 93 0 "},"I":{"ha":382,"x_min":0,"x_max":0,"o":"m 93 972 l 289 972 l 289 0 l 93 0 "},"J":{"ha":519,"x_min":0,"x_max":0,"o":"m 50 179 b 131 171 61 178 94 171 b 229 276 197 171 229 211 l 229 972 l 425 972 l 425 242 b 156 -8 425 61 306 -8 b 28 6 103 -8 67 -3 "},"K":{"ha":854,"x_min":0,"x_max":0,"o":"m 93 972 l 289 972 l 289 528 l 610 972 l 829 972 l 479 507 l 840 0 l 615 0 l 289 472 l 289 0 l 93 0 "},"L":{"ha":632,"x_min":0,"x_max":0,"o":"m 93 972 l 289 972 l 289 176 l 606 176 l 606 0 l 93 0 "},"M":{"ha":1246,"x_min":0,"x_max":0,"o":"m 622 310 l 901 972 l 1154 972 l 1154 0 l 967 0 l 967 694 l 714 82 l 532 82 l 279 694 l 279 0 l 92 0 l 92 972 l 344 972 "},"N":{"ha":990,"x_min":0,"x_max":0,"o":"m 285 658 l 285 0 l 92 0 l 92 972 l 290 972 l 706 308 l 706 972 l 899 972 l 899 0 l 704 0 "},"O":{"ha":1094,"x_min":0,"x_max":0,"o":"m 547 -18 b 42 486 249 -18 42 200 b 547 990 42 769 249 990 b 1053 486 846 990 1053 769 b 547 -18 1053 200 846 -18 m 547 807 b 246 486 372 807 246 669 b 547 165 246 300 372 165 b 849 486 722 165 849 300 b 547 807 849 669 722 807 "},"P":{"ha":753,"x_min":0,"x_max":0,"o":"m 93 972 l 403 972 b 722 669 593 972 722 853 b 404 363 722 489 588 363 l 289 363 l 289 0 l 93 0 m 376 532 b 521 669 463 532 521 588 b 379 803 521 750 461 803 l 289 803 l 289 532 "},"Q":{"ha":1096,"x_min":0,"x_max":0,"o":"m 547 -18 b 42 486 249 -18 42 200 b 547 990 42 769 249 990 b 1053 486 846 990 1053 769 b 964 194 1053 375 1019 276 l 1058 110 l 939 -22 l 839 69 b 547 -18 758 15 660 -18 m 547 807 b 246 486 372 807 246 669 b 547 165 246 300 372 165 b 693 201 601 165 650 178 l 603 283 l 719 415 l 814 329 b 849 486 836 375 849 428 b 547 807 849 669 722 807 "},"R":{"ha":813,"x_min":0,"x_max":0,"o":"m 93 972 l 386 972 b 715 683 599 972 715 843 b 568 426 715 565 657 475 l 799 0 l 582 0 l 393 381 l 289 381 l 289 0 l 93 0 m 381 546 b 514 676 451 546 514 590 b 371 803 514 754 460 803 l 289 803 l 289 546 "},"S":{"ha":724,"x_min":0,"x_max":0,"o":"m 365 990 b 665 778 561 990 642 849 l 503 704 b 361 810 482 750 446 810 b 256 717 294 810 256 769 b 678 278 256 556 678 579 b 353 -18 678 107 556 -18 b 31 207 144 -18 58 128 l 196 288 b 364 164 222 224 276 164 b 479 264 436 164 479 201 b 60 714 479 431 60 403 b 365 990 60 878 179 990 "},"T":{"ha":710,"x_min":0,"x_max":0,"o":"m 257 796 l 29 796 l 29 972 l 679 972 l 679 796 l 453 796 l 453 0 l 257 0 "},"U":{"ha":961,"x_min":0,"x_max":0,"o":"m 481 -18 b 89 365 229 -18 89 136 l 89 972 l 285 972 l 285 365 b 481 164 285 242 356 164 b 676 365 606 164 676 242 l 676 972 l 872 972 l 872 365 b 481 -18 872 136 732 -18 "},"V":{"ha":944,"x_min":0,"x_max":0,"o":"m 367 0 l 8 972 l 224 972 l 472 231 l 721 972 l 936 972 l 579 0 "},"W":{"ha":1357,"x_min":0,"x_max":0,"o":"m 678 671 l 494 0 l 274 0 l 13 972 l 226 972 l 394 244 l 588 972 l 768 972 l 961 244 l 1131 972 l 1343 972 l 1083 0 l 861 0 "},"X":{"ha":886,"x_min":0,"x_max":0,"o":"m 325 494 l 19 972 l 251 972 l 440 646 l 631 972 l 861 972 l 556 494 l 872 0 l 654 0 b 440 347 582 115 511 232 l 228 0 l 10 0 "},"Y":{"ha":811,"x_min":0,"x_max":0,"o":"m 308 444 l 10 972 l 231 972 l 406 624 l 581 972 l 801 972 l 503 444 l 503 0 l 308 0 "},"Z":{"ha":838,"x_min":0,"x_max":0,"o":"m 44 128 l 522 799 l 58 799 l 58 972 l 783 972 l 783 844 l 303 174 l 788 174 l 788 0 l 44 0 "},"[":{"ha":461,"x_min":0,"x_max":0,"o":"m 63 1111 l 372 1111 l 372 946 l 253 946 l 253 -65 l 372 -65 l 372 -231 l 63 -231 "},"\\":{"ha":628,"x_min":0,"x_max":0,"o":"m 607 -150 l 439 -150 l 21 1042 l 189 1042 "},"]":{"ha":464,"x_min":0,"x_max":0,"o":"m 399 -231 l 89 -231 l 89 -65 l 208 -65 l 208 946 l 89 946 l 89 1111 l 399 1111 "},"^":{"ha":774,"x_min":0,"x_max":0,"o":"m 308 972 l 465 972 l 719 442 l 540 442 l 386 786 l 232 442 l 54 442 "},"_":{"ha":853,"x_min":0,"x_max":0,"o":"m 818 -40 l 818 -190 l 33 -190 l 33 -40 "},"`":{"ha":671,"x_min":0,"x_max":0,"o":"m 482 807 l 322 807 l 188 1007 l 389 1007 "},"a":{"ha":731,"x_min":0,"x_max":0,"o":"m 33 225 b 315 465 33 368 146 465 b 472 425 389 465 446 443 l 472 472 b 340 579 472 536 425 579 b 147 528 268 579 201 556 l 75 658 b 361 744 140 703 250 744 b 664 460 594 744 664 622 l 664 0 l 494 0 l 482 47 b 306 -18 444 7 389 -18 b 33 225 158 -18 33 72 m 225 231 b 351 131 225 171 279 131 b 476 231 424 131 476 169 b 350 332 476 294 424 332 b 225 231 276 332 225 290 "},"b":{"ha":861,"x_min":0,"x_max":0,"o":"m 75 1004 l 267 1004 l 267 650 b 482 744 285 675 357 744 b 826 363 690 744 826 588 b 471 -18 826 139 679 -18 b 256 75 347 -18 275 51 l 256 0 l 75 0 m 261 361 b 447 151 261 246 331 151 b 633 361 556 151 633 232 b 447 575 633 488 558 575 b 261 361 342 575 261 497 "},"c":{"ha":681,"x_min":0,"x_max":0,"o":"m 433 151 b 597 217 507 151 565 190 l 649 60 b 422 -18 607 26 528 -18 b 35 361 196 -18 35 140 b 421 744 35 582 200 744 b 650 667 528 744 603 703 l 596 506 b 426 575 564 535 508 575 b 226 363 303 575 226 479 b 433 151 226 239 313 151 "},"d":{"ha":861,"x_min":0,"x_max":0,"o":"m 786 0 l 606 0 l 606 75 b 390 -18 586 51 514 -18 b 35 363 182 -18 35 139 b 379 744 35 588 171 744 b 594 650 504 744 576 675 l 594 1004 l 786 1004 m 600 361 b 414 575 600 497 519 575 b 228 361 303 575 228 488 b 414 151 228 232 306 151 b 600 361 531 151 600 246 "},"e":{"ha":776,"x_min":0,"x_max":0,"o":"m 36 361 b 392 744 36 581 185 744 b 744 357 617 744 744 594 b 743 315 744 343 744 329 l 232 315 b 421 149 236 218 314 149 b 597 238 519 149 576 207 l 724 142 b 418 -18 696 90 599 -18 b 36 361 185 -18 36 143 m 550 440 b 394 588 546 529 482 588 b 238 440 304 588 246 524 "},"f":{"ha":453,"x_min":0,"x_max":0,"o":"m 108 571 l 31 571 l 31 726 l 108 726 l 108 753 b 376 1004 108 942 235 1004 b 439 1001 404 1004 425 1003 l 439 840 b 401 843 435 840 418 843 b 300 749 335 843 300 813 l 300 726 l 426 726 l 426 571 l 300 571 l 300 0 l 108 0 "},"g":{"ha":854,"x_min":0,"x_max":0,"o":"m 186 -53 b 393 -103 210 -65 293 -103 b 593 42 497 -103 593 -71 l 593 75 b 381 -18 578 54 507 -18 b 33 363 171 -18 33 139 b 388 744 33 586 181 744 b 604 650 510 744 583 678 l 604 726 l 785 726 l 785 92 b 394 -267 785 -179 608 -267 b 128 -200 294 -267 193 -236 m 599 364 b 411 575 599 488 524 575 b 226 364 303 575 226 492 b 413 151 226 236 304 151 b 599 364 524 151 599 235 "},"h":{"ha":781,"x_min":0,"x_max":0,"o":"m 458 744 b 710 419 667 744 710 574 l 710 0 l 519 0 l 519 442 b 399 572 519 522 464 572 b 267 436 318 572 267 514 l 267 0 l 75 0 l 75 1004 l 267 1004 l 267 642 b 458 744 297 692 364 744 "},"i":{"ha":343,"x_min":0,"x_max":0,"o":"m 75 726 l 267 726 l 267 0 l 75 0 m 58 901 b 169 1011 58 964 107 1011 b 282 901 233 1011 282 964 b 169 792 282 839 233 792 b 58 901 107 792 58 839 "},"j":{"ha":343,"x_min":0,"x_max":0,"o":"m 75 726 l 267 726 l 267 -10 b -11 -265 267 -201 146 -265 b -58 -262 -33 -265 -58 -262 l -58 -100 b -25 -103 -58 -100 -39 -103 b 75 -1 44 -103 75 -67 m 58 901 b 169 1011 58 964 107 1011 b 282 901 233 1011 282 964 b 169 792 282 839 233 792 b 58 901 107 792 58 839 "},"k":{"ha":739,"x_min":0,"x_max":0,"o":"m 75 1004 l 267 1004 l 267 421 l 500 726 l 715 726 l 460 397 l 735 0 l 510 0 l 267 375 l 267 0 l 75 0 "},"l":{"ha":343,"x_min":0,"x_max":0,"o":"m 75 1004 l 267 1004 l 267 0 l 75 0 "},"m":{"ha":1182,"x_min":0,"x_max":0,"o":"m 1113 0 l 921 0 l 921 435 b 807 572 921 521 878 572 b 689 433 738 572 689 521 l 689 0 l 497 0 l 497 442 b 385 572 497 524 456 572 b 267 435 317 572 267 521 l 267 0 l 75 0 l 75 726 l 263 726 l 263 642 b 451 744 289 692 353 744 b 650 636 544 744 613 703 b 865 744 693 703 768 744 b 1113 479 1031 744 1113 635 "},"n":{"ha":778,"x_min":0,"x_max":0,"o":"m 457 744 b 708 419 664 744 708 574 l 708 0 l 517 0 l 517 442 b 396 572 517 522 461 572 b 267 436 317 572 267 514 l 267 0 l 75 0 l 75 726 l 263 726 l 263 642 b 457 744 293 692 363 744 "},"o":{"ha":851,"x_min":0,"x_max":0,"o":"m 35 361 b 425 744 35 582 204 744 b 817 361 647 744 817 581 b 425 -18 817 142 653 -18 b 35 361 199 -18 35 142 m 226 361 b 425 151 226 238 311 151 b 625 361 540 151 625 238 b 425 575 625 485 540 575 b 226 361 310 575 226 486 "},"p":{"ha":863,"x_min":0,"x_max":0,"o":"m 75 726 l 256 726 l 256 650 b 471 744 275 675 347 744 b 826 364 679 744 826 586 b 482 -18 826 139 690 -18 b 267 75 357 -18 285 51 l 267 -260 l 75 -260 m 261 365 b 447 151 261 229 342 151 b 633 365 558 151 633 239 b 447 575 633 494 556 575 b 261 365 331 575 261 481 "},"q":{"ha":863,"x_min":0,"x_max":0,"o":"m 786 -260 l 594 -260 l 594 75 b 379 -18 576 51 504 -18 b 35 364 171 -18 35 139 b 390 744 35 586 182 744 b 606 650 514 744 586 675 l 606 726 l 786 726 m 600 365 b 414 575 600 481 531 575 b 228 365 306 575 228 494 b 414 151 228 239 303 151 b 600 365 519 151 600 229 "},"r":{"ha":500,"x_min":0,"x_max":0,"o":"m 463 550 b 267 317 319 550 267 461 l 267 0 l 75 0 l 75 726 l 263 726 l 263 621 b 463 744 294 693 367 744 "},"s":{"ha":604,"x_min":0,"x_max":0,"o":"m 297 -18 b 26 117 154 -18 65 54 l 139 217 b 306 138 175 175 224 138 b 394 203 360 138 394 161 b 51 529 394 314 51 271 b 315 744 51 664 167 744 b 564 615 453 744 529 672 l 438 521 b 307 590 415 549 375 590 b 232 532 263 590 232 568 b 576 213 232 417 576 472 b 297 -18 576 71 454 -18 "},"t":{"ha":463,"x_min":0,"x_max":0,"o":"m 93 879 l 282 879 l 282 726 l 418 726 l 418 571 l 282 571 l 282 290 b 389 160 282 182 315 160 b 424 161 401 160 408 160 l 424 -3 b 342 -10 424 -3 394 -10 b 92 285 168 -10 92 88 l 92 571 l 15 571 l 15 726 l 93 726 "},"u":{"ha":772,"x_min":0,"x_max":0,"o":"m 321 -18 b 69 307 114 -18 69 153 l 69 726 l 261 726 l 261 285 b 382 154 261 204 317 154 b 511 290 461 154 511 213 l 511 726 l 703 726 l 703 0 l 515 0 l 515 85 b 321 -18 485 35 415 -18 "},"v":{"ha":753,"x_min":0,"x_max":0,"o":"m 265 0 l 6 726 l 210 726 l 376 204 l 543 726 l 747 726 l 488 0 "},"w":{"ha":1150,"x_min":0,"x_max":0,"o":"m 575 465 l 440 0 l 226 0 l 10 726 l 218 726 l 346 211 l 485 726 l 665 726 l 803 211 l 932 726 l 1140 726 l 922 0 l 708 0 "},"x":{"ha":739,"x_min":0,"x_max":0,"o":"m 369 228 l 214 0 l 7 0 l 263 371 l 18 726 l 233 726 l 369 506 l 506 726 l 721 726 l 476 371 l 732 0 l 524 0 "},"y":{"ha":750,"x_min":0,"x_max":0,"o":"m 186 -249 l 288 18 l 8 726 l 214 726 l 376 253 l 540 726 l 740 726 l 369 -249 "},"z":{"ha":650,"x_min":0,"x_max":0,"o":"m 276 160 l 608 160 l 608 0 l 39 0 l 39 118 l 367 567 l 49 567 l 49 726 l 604 726 l 604 607 "},"{":{"ha":539,"x_min":0,"x_max":0,"o":"m 219 440 b 329 260 246 435 329 388 l 329 53 b 450 -65 329 -18 361 -65 l 450 -231 b 140 64 238 -231 140 -126 l 140 214 b 39 351 140 325 89 351 l 39 531 b 140 668 92 531 140 557 l 140 817 b 450 1111 140 1007 238 1111 l 450 946 b 329 828 361 946 329 899 l 329 622 b 219 440 329 493 246 447 "},"|":{"ha":392,"x_min":0,"x_max":0,"o":"m 106 1144 l 286 1144 l 286 -326 l 106 -326 "},"}":{"ha":539,"x_min":0,"x_max":0,"o":"m 319 440 b 210 622 293 447 210 493 l 210 828 b 89 946 210 899 178 946 l 89 1111 b 399 817 301 1111 399 1007 l 399 668 b 500 531 399 557 447 531 l 500 351 b 399 214 450 351 399 325 l 399 64 b 89 -231 399 -126 301 -231 l 89 -65 b 210 53 178 -65 210 -18 l 210 260 b 319 440 210 388 293 435 "},"~":{"ha":758,"x_min":0,"x_max":0,"o":"m 506 301 b 264 372 401 301 343 372 b 197 300 219 372 197 340 l 49 300 b 253 546 49 444 126 546 b 492 475 351 546 422 475 b 560 546 536 475 558 506 l 708 546 b 506 301 708 411 633 301 "},"¡":{"ha":406,"x_min":0,"x_max":0,"o":"m 117 483 l 289 483 l 304 -212 l 101 -212 m 203 778 b 321 661 269 778 321 725 b 203 542 321 596 269 542 b 85 661 136 542 85 596 b 203 778 85 725 136 778 "},"£":{"ha":796,"x_min":0,"x_max":0,"o":"m 58 553 l 129 553 l 129 694 b 439 990 129 867 251 990 b 721 788 618 990 699 865 l 561 719 b 440 803 547 756 515 803 b 324 685 372 803 324 754 l 324 553 l 539 553 l 539 406 l 324 406 l 324 171 l 743 171 l 743 0 l 49 0 l 49 171 l 129 171 l 129 406 l 58 406 "},"¨":{"ha":671,"x_min":0,"x_max":0,"o":"m 201 813 b 107 907 146 813 107 854 b 201 1001 107 958 146 1001 b 296 907 256 1001 296 958 b 201 813 296 854 256 813 m 468 813 b 374 907 411 813 374 854 b 468 1001 374 958 411 1001 b 563 907 522 1001 563 958 b 468 813 563 854 522 813 "},"©":{"ha":1097,"x_min":0,"x_max":0,"o":"m 549 96 b 919 486 769 96 919 261 b 547 874 919 708 769 874 b 176 486 328 874 176 708 b 549 96 176 261 328 96 m 299 485 b 553 751 299 635 401 751 b 758 646 668 751 731 685 l 657 564 b 554 619 642 585 611 619 b 443 485 483 619 443 563 b 554 350 443 407 483 350 b 657 406 611 350 642 385 l 758 325 b 553 218 731 285 668 218 b 299 485 401 218 299 335 m 547 990 b 1047 483 838 990 1047 768 b 549 -19 1047 201 838 -19 b 49 483 260 -19 49 201 b 547 990 49 767 260 990 "},"ª":{"ha":571,"x_min":0,"x_max":0,"o":"m 47 600 b 258 781 47 708 131 781 b 375 753 311 781 356 764 l 375 785 b 278 863 375 832 340 863 b 132 824 224 863 174 846 l 76 924 b 294 990 128 958 201 990 b 521 774 468 990 521 897 l 521 429 l 392 429 l 382 463 b 251 417 354 435 313 417 b 47 600 140 417 47 483 m 192 604 b 286 531 192 560 232 531 b 379 604 339 531 379 558 b 286 678 379 650 339 678 b 192 604 231 678 192 647 "},"«":{"ha":681,"x_min":0,"x_max":0,"o":"m 39 407 l 208 668 l 379 668 l 210 407 l 379 147 l 208 147 m 300 407 l 469 668 l 640 668 l 471 407 l 640 147 l 469 147 "},"®":{"ha":628,"x_min":0,"x_max":0,"o":"m 285 699 l 285 594 l 203 594 l 203 894 l 325 894 b 433 797 393 894 433 849 b 386 715 433 756 410 726 l 442 594 l 357 594 l 314 699 m 285 825 l 285 765 l 318 765 b 349 796 335 765 349 778 b 318 825 349 814 335 825 m 22 742 b 311 1031 22 903 139 1031 b 606 743 492 1031 606 904 b 314 456 606 586 492 456 b 22 742 138 456 22 581 m 100 742 b 314 526 100 619 181 526 b 528 743 449 526 528 618 b 311 958 528 871 447 958 b 100 742 181 958 100 868 "},"¯":{"ha":618,"x_min":0,"x_max":0,"o":"m 122 978 l 494 978 l 494 838 l 122 838 "},"°":{"ha":525,"x_min":0,"x_max":0,"o":"m 263 553 b 38 769 131 553 38 647 b 263 990 38 893 132 990 b 486 771 393 990 486 893 b 263 553 486 647 394 553 m 263 860 b 175 771 210 860 175 821 b 263 682 175 719 210 682 b 350 771 319 682 350 719 b 263 860 350 821 315 860 "},"²":{"ha":500,"x_min":0,"x_max":0,"o":"m 51 479 b 301 797 51 644 301 708 b 240 854 301 831 279 854 b 161 792 193 854 172 821 l 46 833 b 246 983 63 892 118 983 b 450 803 360 983 450 918 b 214 540 450 660 243 613 l 457 540 l 457 421 l 51 421 "},"³":{"ha":496,"x_min":0,"x_max":0,"o":"m 435 878 l 311 754 b 454 593 389 744 454 689 b 246 410 454 472 360 410 b 43 558 117 410 61 500 b 157 601 81 574 119 586 b 240 538 169 571 193 538 b 307 601 279 538 307 561 b 228 667 307 643 275 667 l 165 667 l 165 761 l 256 853 l 68 853 l 68 972 l 435 972 "},"´":{"ha":671,"x_min":0,"x_max":0,"o":"m 281 1007 l 482 1007 l 347 807 l 188 807 "},"¶":{"ha":757,"x_min":0,"x_max":0,"o":"m 311 449 b 50 711 164 450 50 563 b 313 972 50 860 164 972 l 460 972 l 460 -62 l 311 -62 m 543 972 l 692 972 l 692 -62 l 543 -62 "},"·":{"ha":346,"x_min":0,"x_max":0,"o":"m 172 318 b 54 435 106 318 54 371 b 172 554 54 500 106 554 b 290 435 239 554 290 500 b 172 318 290 371 239 318 "},"¸":{"ha":618,"x_min":0,"x_max":0,"o":"m 264 -324 b 183 -311 236 -324 197 -315 l 206 -212 b 251 -219 217 -215 233 -219 b 311 -174 283 -219 311 -206 b 242 -131 311 -143 276 -131 b 218 -133 231 -131 218 -133 l 240 17 l 340 17 l 329 -54 b 435 -182 397 -68 435 -121 b 264 -324 435 -272 358 -324 "},"¹":{"ha":397,"x_min":0,"x_max":0,"o":"m 57 931 l 176 972 l 296 972 l 296 421 l 151 421 l 151 831 l 93 808 "},"º":{"ha":667,"x_min":0,"x_max":0,"o":"m 39 701 b 333 990 39 868 165 990 b 626 703 506 990 626 868 b 332 417 626 539 501 417 b 39 701 161 417 39 538 m 186 701 b 332 546 186 610 247 546 b 481 703 418 546 481 613 b 332 860 481 796 417 860 b 186 701 246 860 186 794 "},"»":{"ha":681,"x_min":0,"x_max":0,"o":"m 471 147 l 300 147 l 469 407 l 300 668 l 471 668 l 640 407 m 210 147 l 39 147 l 208 407 l 39 668 l 210 668 l 379 407 "},"¼":{"ha":1154,"x_min":0,"x_max":0,"o":"m 908 101 l 651 101 l 651 208 l 894 551 l 1053 551 l 1053 224 l 1114 224 l 1114 101 l 1053 101 l 1053 0 l 908 0 m 908 224 l 908 401 l 788 224 m 224 -57 l 743 1029 l 908 1029 l 388 -57 m 69 931 l 189 972 l 308 972 l 308 421 l 164 421 l 164 831 l 106 808 "},"½":{"ha":1171,"x_min":0,"x_max":0,"o":"m 69 931 l 189 972 l 308 972 l 308 421 l 164 421 l 164 831 l 106 808 m 203 -57 l 722 1029 l 888 1029 l 367 -57 m 703 58 b 953 376 703 224 953 288 b 892 433 953 410 931 433 b 813 371 844 433 824 400 l 697 413 b 897 563 714 471 769 563 b 1101 382 1011 563 1101 497 b 865 119 1101 239 894 192 l 1108 119 l 1108 0 l 703 0 "},"¾":{"ha":1217,"x_min":0,"x_max":0,"o":"m 288 -57 l 807 1029 l 972 1029 l 451 -57 m 960 101 l 703 101 l 703 208 l 946 551 l 1104 551 l 1104 224 l 1165 224 l 1165 101 l 1104 101 l 1104 0 l 960 0 m 960 224 l 960 401 l 839 224 m 442 878 l 318 754 b 461 593 396 744 461 689 b 253 410 461 472 367 410 b 50 558 124 410 68 500 b 164 601 88 574 126 586 b 247 538 176 571 200 538 b 314 601 286 538 314 561 b 235 667 314 643 282 667 l 172 667 l 172 761 l 263 853 l 75 853 l 75 972 l 442 972 "},"¿":{"ha":669,"x_min":0,"x_max":0,"o":"m 458 415 b 236 50 458 228 236 185 b 353 -54 236 -4 279 -54 b 476 32 429 -54 461 -4 l 629 -36 b 350 -231 603 -112 524 -231 b 40 39 171 -231 40 -119 b 272 426 40 247 272 292 l 272 483 l 458 483 m 365 778 b 483 661 432 778 483 725 b 365 542 483 596 432 542 b 247 661 299 542 247 596 b 365 778 247 725 299 778 "},"Æ":{"ha":1190,"x_min":0,"x_max":0,"o":"m 518 972 l 1115 972 l 1115 796 l 813 796 l 813 579 l 1072 579 l 1072 406 l 813 406 l 813 175 l 1128 175 l 1128 0 l 617 0 l 617 250 l 350 250 l 224 0 l 11 0 m 422 413 l 617 413 l 617 782 l 610 782 "},"Ð":{"ha":925,"x_min":0,"x_max":0,"o":"m 31 575 l 108 575 l 108 972 l 365 972 b 882 486 685 972 882 790 b 365 0 882 175 682 0 l 108 0 l 108 403 l 31 403 m 374 169 b 678 486 557 169 678 276 b 374 801 678 690 557 801 l 304 801 l 304 575 l 456 575 l 456 403 l 304 403 l 304 169 "},"×":{"ha":735,"x_min":0,"x_max":0,"o":"m 365 321 l 154 96 l 46 204 l 260 431 l 46 657 l 154 765 l 365 540 l 576 765 l 685 657 l 471 431 l 685 204 l 576 96 "},"Þ":{"ha":753,"x_min":0,"x_max":0,"o":"m 93 972 l 289 972 l 289 801 l 403 801 b 722 499 593 801 722 682 b 404 192 722 318 588 192 l 289 192 l 289 0 l 93 0 m 376 361 b 521 499 463 361 521 417 b 379 632 521 579 461 632 l 289 632 l 289 361 "},"ß":{"ha":778,"x_min":0,"x_max":0,"o":"m 363 1004 b 663 774 554 1004 663 919 b 572 611 663 692 613 633 b 744 335 664 567 744 486 b 350 0 744 131 588 0 l 350 161 b 553 336 474 161 553 226 b 350 507 553 456 460 507 l 350 660 b 475 756 426 660 475 694 b 369 843 475 801 439 843 b 267 742 303 843 267 806 l 267 0 l 75 0 l 75 753 b 363 1004 75 938 207 1004 "},"ð":{"ha":817,"x_min":0,"x_max":0,"o":"m 35 347 b 379 694 35 556 190 694 b 461 683 407 694 443 689 b 374 774 439 718 404 751 l 153 694 l 136 815 l 263 863 b 144 938 224 890 183 915 l 254 1033 b 449 926 319 1006 392 964 l 632 996 l 650 871 l 553 835 b 776 383 686 715 776 564 b 403 -18 776 172 664 -18 b 35 347 178 -18 35 146 m 226 347 b 401 150 226 239 292 150 b 585 353 525 150 585 240 b 410 538 585 453 515 538 b 226 347 292 538 226 453 "},"÷":{"ha":765,"x_min":0,"x_max":0,"o":"m 382 599 b 283 696 326 599 283 643 b 382 797 283 751 326 797 b 482 696 438 797 482 751 b 382 599 482 643 438 599 m 382 68 b 283 167 326 68 283 114 b 382 267 283 222 326 267 b 482 167 438 267 482 222 b 382 68 482 114 438 68 m 51 510 l 714 510 l 714 356 l 51 356 "},"þ":{"ha":863,"x_min":0,"x_max":0,"o":"m 75 1004 l 267 1004 l 267 661 b 471 744 293 689 360 744 b 826 364 679 744 826 586 b 482 -18 826 139 690 -18 b 267 75 357 -18 285 51 l 267 -260 l 75 -260 m 261 365 b 447 151 261 229 342 151 b 633 365 558 151 633 239 b 447 575 633 493 556 575 b 261 365 331 575 261 481 "},"Đ":{"ha":924,"x_min":0,"x_max":0,"o":"m 31 575 l 108 575 l 108 972 l 365 972 b 881 486 685 972 881 790 b 365 0 881 175 682 0 l 108 0 l 108 403 l 31 403 m 374 169 b 678 486 557 169 678 276 b 374 801 678 690 557 801 l 304 801 l 304 575 l 456 575 l 456 403 l 304 403 l 304 169 "},"ı":{"ha":343,"x_min":0,"x_max":0,"o":"m 75 726 l 267 726 l 267 0 l 75 0 "},"ƒ":{"ha":661,"x_min":0,"x_max":0,"o":"m 336 -6 b 50 -267 308 -211 182 -267 b -37 -258 17 -267 -22 -261 l -15 -99 b 33 -104 -3 -101 14 -104 b 153 43 114 -104 138 -68 l 207 449 l 124 449 l 124 604 l 228 604 l 246 742 b 529 988 271 932 407 988 b 618 979 581 988 618 979 l 597 819 b 547 825 590 821 569 825 b 433 722 488 825 444 800 l 417 604 l 538 604 l 538 449 l 396 449 "},"ˆ":{"ha":618,"x_min":0,"x_max":0,"o":"m 308 910 l 240 811 l 78 811 l 210 1006 l 407 1006 l 539 811 l 376 811 "},"ˇ":{"ha":618,"x_min":0,"x_max":0,"o":"m 376 1006 l 539 1006 l 407 811 l 210 811 l 78 1006 l 240 1006 l 308 907 "},"˘":{"ha":618,"x_min":0,"x_max":0,"o":"m 307 807 b 97 1006 174 807 97 890 l 235 1006 b 307 919 235 963 250 919 b 381 1006 365 919 381 963 l 518 1006 b 307 807 518 890 443 807 "},"˙":{"ha":618,"x_min":0,"x_max":0,"o":"m 197 901 b 308 1011 197 964 246 1011 b 421 901 372 1011 421 964 b 308 792 421 839 372 792 b 197 901 246 792 197 839 "},"˚":{"ha":618,"x_min":0,"x_max":0,"o":"m 307 783 b 160 921 224 783 160 840 b 307 1058 160 1003 224 1058 b 457 922 393 1058 457 1003 b 307 783 457 840 393 783 m 308 867 b 361 922 340 867 361 889 b 308 975 361 953 340 975 b 256 921 276 975 256 953 b 308 867 256 889 276 867 "},"˛":{"ha":618,"x_min":0,"x_max":0,"o":"m 192 -150 b 299 0 192 -72 257 -19 l 426 0 b 350 -89 410 -7 350 -36 b 422 -144 350 -126 389 -144 l 422 -281 b 374 -286 413 -283 392 -286 b 192 -150 288 -286 192 -260 "},"˜":{"ha":618,"x_min":0,"x_max":0,"o":"m 403 815 b 229 867 329 815 276 867 b 185 814 201 867 185 847 l 64 814 b 217 1000 64 925 125 1000 b 388 949 293 1000 343 949 b 432 1001 415 949 432 969 l 553 1001 b 403 815 553 888 493 815 "},"˝":{"ha":646,"x_min":0,"x_max":0,"o":"m 399 1007 l 582 1007 l 449 807 l 304 807 m 156 1007 l 340 1007 l 206 807 l 63 807 "},"–":{"ha":900,"x_min":0,"x_max":0,"o":"m 63 506 l 838 506 l 838 349 l 63 349 "},"—":{"ha":1275,"x_min":0,"x_max":0,"o":"m 63 506 l 1211 506 l 1211 349 l 63 349 "},"‘":{"ha":313,"x_min":0,"x_max":0,"o":"m 265 933 b 179 821 236 914 186 865 b 275 706 242 807 275 756 b 158 586 275 640 224 586 b 36 714 92 586 36 632 b 190 1017 36 840 106 954 l 265 933 "},"’":{"ha":313,"x_min":0,"x_max":0,"o":"m 46 669 b 132 782 75 689 125 738 b 36 897 69 796 36 847 b 153 1017 36 963 88 1017 b 275 889 219 1017 275 971 b 121 586 275 763 206 649 l 46 669 "},"‚":{"ha":339,"x_min":0,"x_max":0,"o":"m 61 -129 b 147 -17 90 -110 140 -61 b 51 99 85 -3 51 49 b 168 218 51 164 103 218 b 290 90 235 218 290 172 b 136 -212 290 -36 221 -150 l 61 -129 "},"“":{"ha":590,"x_min":0,"x_max":0,"o":"m 265 933 b 179 821 236 914 186 865 b 275 706 242 807 275 756 b 158 586 275 640 224 586 b 36 714 92 586 36 632 b 190 1017 36 840 106 954 l 265 933 m 543 933 b 457 821 514 914 464 865 b 553 706 519 807 553 756 b 436 586 553 640 501 586 b 314 714 369 586 314 632 b 468 1017 314 840 383 954 l 543 933 "},"”":{"ha":590,"x_min":0,"x_max":0,"o":"m 324 669 b 410 782 353 689 403 738 b 314 897 347 796 314 847 b 431 1017 314 963 365 1017 b 553 889 497 1017 553 971 b 399 586 553 763 483 649 l 324 669 m 46 669 b 132 782 75 689 125 738 b 36 897 69 796 36 847 b 153 1017 36 963 88 1017 b 275 889 219 1017 275 971 b 121 586 275 763 206 649 l 46 669 "},"„":{"ha":590,"x_min":0,"x_max":0,"o":"m 46 -129 b 132 -17 75 -110 125 -61 b 36 99 69 -3 36 49 b 153 218 36 164 88 218 b 275 90 219 218 275 172 b 121 -212 275 -36 206 -150 l 46 -129 m 324 -129 b 410 -17 353 -110 403 -61 b 314 99 347 -3 314 49 b 431 218 314 164 365 218 b 553 90 497 218 553 172 b 399 -212 553 -36 483 -150 l 324 -129 "},"†":{"ha":590,"x_min":0,"x_max":0,"o":"m 200 578 l 38 578 l 38 744 l 200 744 l 200 972 l 388 972 l 388 744 l 553 744 l 553 578 l 388 578 l 388 0 l 200 0 "},"‡":{"ha":589,"x_min":0,"x_max":0,"o":"m 553 235 l 390 235 l 390 0 l 203 0 l 203 235 l 38 235 l 38 400 l 203 400 l 203 569 l 38 569 l 38 736 l 203 736 l 203 972 l 390 972 l 390 736 l 553 736 l 553 569 l 390 569 l 390 400 l 553 400 "},"•":{"ha":564,"x_min":0,"x_max":0,"o":"m 282 192 b 43 431 144 192 43 299 b 282 669 43 563 144 669 b 521 431 419 669 521 563 b 282 192 521 299 419 192 "},"…":{"ha":1068,"x_min":0,"x_max":0,"o":"m 169 -18 b 51 99 103 -18 51 35 b 169 218 51 164 103 218 b 288 99 236 218 288 164 b 169 -18 288 35 236 -18 m 533 -18 b 415 99 467 -18 415 35 b 533 218 415 164 467 218 b 651 99 600 218 651 164 b 533 -18 651 35 600 -18 m 899 -18 b 781 99 832 -18 781 35 b 899 218 781 164 832 218 b 1017 99 965 218 1017 164 b 899 -18 1017 35 965 -18 "},"‰":{"ha":1654,"x_min":0,"x_max":0,"o":"m 833 972 l 1019 972 l 283 0 l 97 0 m 511 758 b 275 526 511 631 411 526 b 39 758 139 526 39 631 b 275 990 39 886 139 990 b 511 758 411 990 511 886 m 185 758 b 275 665 185 708 219 665 b 365 758 331 665 365 708 b 275 851 365 808 331 851 b 185 758 219 851 185 808 m 1076 211 b 840 -21 1076 83 976 -21 b 604 211 704 -21 604 83 b 840 443 604 339 704 443 b 1076 211 976 443 1076 339 m 750 211 b 840 118 750 161 785 118 b 931 211 896 118 931 161 b 840 304 931 261 896 304 b 750 211 785 304 750 261 m 1615 211 b 1379 -21 1615 83 1515 -21 b 1143 211 1243 -21 1143 83 b 1379 443 1143 339 1243 443 b 1615 211 1515 443 1615 339 m 1289 211 b 1379 118 1289 161 1324 118 b 1469 211 1435 118 1469 161 b 1379 304 1469 261 1435 304 b 1289 211 1324 304 1289 261 "},"‹":{"ha":419,"x_min":0,"x_max":0,"o":"m 39 407 l 208 668 l 379 668 l 210 407 l 379 147 l 208 147 "},"›":{"ha":419,"x_min":0,"x_max":0,"o":"m 210 147 l 39 147 l 208 407 l 39 668 l 210 668 l 379 407 "},"⁄":{"ha":639,"x_min":0,"x_max":0,"o":"m -22 -57 l 497 1029 l 663 1029 l 142 -57 "},"€":{"ha":896,"x_min":0,"x_max":0,"o":"m 33 447 l 103 447 b 100 488 101 453 100 467 b 103 532 100 503 101 519 l 33 532 l 33 660 l 128 660 b 581 990 188 849 360 990 b 829 928 692 990 775 963 l 749 768 b 585 811 714 788 653 811 b 342 660 474 811 382 751 l 649 660 l 636 532 l 307 532 b 304 489 306 518 304 504 b 308 447 304 474 306 458 l 629 447 l 617 321 l 347 321 b 594 167 389 228 479 167 b 764 213 671 167 735 193 l 839 54 b 594 -18 804 22 711 -18 b 126 321 354 -18 185 125 l 33 321 "},"™":{"ha":1079,"x_min":0,"x_max":0,"o":"m 167 854 l 44 854 l 44 972 l 418 972 l 418 854 l 297 854 l 297 471 l 167 471 m 690 526 l 592 763 l 592 471 l 465 471 l 465 972 l 631 972 l 749 678 l 868 972 l 1035 972 l 1035 471 l 908 471 l 908 763 l 810 526 "},"−":{"ha":764,"x_min":0,"x_max":0,"o":"m 50 510 l 714 510 l 714 356 l 50 356 "},"\"":{"ha":514,"x_min":0,"x_max":0,"o":"m 58 972 l 214 972 l 207 642 l 65 642 m 299 972 l 454 972 l 446 642 l 306 642 "},"!":{"ha":406,"x_min":0,"x_max":0,"o":"m 101 972 l 304 972 l 289 276 l 117 276 m 203 -18 b 85 99 136 -18 85 35 b 203 218 85 164 136 218 b 321 99 269 218 321 164 b 203 -18 321 35 269 -18 "},"&":{"ha":910,"x_min":0,"x_max":0,"o":"m 661 72 b 397 -18 603 22 511 -18 b 38 279 169 -18 38 108 b 200 551 38 403 100 485 b 119 739 160 599 119 657 b 403 990 119 879 226 990 b 692 735 588 990 692 882 b 513 474 692 617 615 536 l 657 335 b 682 465 676 375 682 410 l 861 465 b 788 196 861 368 843 281 l 885 94 l 756 -28 m 400 154 b 536 206 460 154 510 179 l 314 426 b 231 294 263 401 231 353 b 400 154 231 203 313 154 m 296 729 b 400 575 296 667 343 621 b 519 729 468 615 519 667 b 406 836 519 790 476 836 b 296 729 342 836 296 790 "},"§":{"ha":710,"x_min":0,"x_max":0,"o":"m 663 326 b 542 142 663 243 617 178 b 647 -56 601 94 647 35 b 357 -310 647 -206 535 -310 b 47 -103 163 -310 72 -174 l 207 -33 b 357 -133 228 -78 276 -133 b 451 -53 414 -133 451 -103 b 360 60 451 -4 415 26 l 186 164 b 46 382 104 213 46 278 b 165 565 46 464 93 531 b 61 763 106 613 61 672 b 353 1018 61 913 174 1018 b 660 810 547 1018 635 881 l 500 740 b 353 842 479 786 432 842 b 257 760 296 842 257 807 b 347 647 257 711 293 681 l 507 553 b 663 326 599 499 663 431 m 483 322 b 426 403 483 358 460 385 l 311 465 b 225 385 257 464 225 428 b 268 314 225 351 243 328 l 396 242 b 483 322 450 243 483 279 "},"œ":{"ha":1360,"x_min":0,"x_max":0,"o":"m 35 361 b 424 744 35 582 203 744 b 714 618 546 744 647 697 b 974 744 774 697 865 744 b 1328 357 1200 744 1328 594 b 1326 315 1328 343 1328 329 l 814 315 b 1004 149 818 217 896 149 b 1181 238 1103 149 1160 207 l 1307 142 b 1000 -18 1279 90 1181 -18 b 714 108 875 -18 776 29 b 424 -18 647 31 543 -18 b 35 361 197 -18 35 142 m 226 361 b 424 151 226 238 310 151 b 625 364 539 151 625 240 b 424 575 625 488 539 575 b 226 361 308 575 226 486 m 1132 440 b 976 588 1128 529 1065 588 b 821 440 886 588 828 524 "},"":{"ha":406,"x_min":0,"x_max":0,"o":"m 110 -333 b 178 -243 135 -314 168 -281 b 96 -143 124 -232 96 -186 b 200 -40 96 -86 143 -40 b 308 -160 263 -40 308 -87 b 176 -404 308 -260 253 -351 l 110 -333 "},"á":{"ha":731,"x_min":0,"x_max":0,"o":"m 33 225 b 315 465 33 368 146 465 b 472 425 389 465 446 443 l 472 472 b 340 579 472 536 425 579 b 147 528 268 579 201 556 l 75 658 b 361 744 140 703 250 744 b 664 460 594 744 664 622 l 664 0 l 494 0 l 482 47 b 306 -18 444 7 389 -18 b 33 225 158 -18 33 72 m 225 231 b 351 131 225 171 279 131 b 476 231 424 131 476 169 b 350 332 476 294 424 332 b 225 231 276 332 225 290 m 364 1007 l 565 1007 l 431 807 l 271 807 "},"å":{"ha":731,"x_min":0,"x_max":0,"o":"m 33 225 b 315 465 33 368 146 465 b 472 425 389 465 446 443 l 472 472 b 340 579 472 536 425 579 b 147 528 268 579 201 556 l 75 658 b 361 744 140 703 250 744 b 664 460 594 744 664 622 l 664 0 l 494 0 l 482 47 b 306 -18 444 7 389 -18 b 33 225 158 -18 33 72 m 225 231 b 351 131 225 171 279 131 b 476 231 424 131 476 169 b 350 332 476 294 424 332 b 225 231 276 332 225 290 m 371 783 b 224 921 288 783 224 840 b 371 1058 224 1003 288 1058 b 521 922 457 1058 521 1003 b 371 783 521 840 457 783 m 372 867 b 425 922 404 867 425 889 b 372 975 425 953 404 975 b 319 921 340 975 319 953 b 372 867 319 889 340 867 "},"ã":{"ha":731,"x_min":0,"x_max":0,"o":"m 33 225 b 315 465 33 368 146 465 b 472 425 389 465 446 443 l 472 472 b 340 579 472 536 425 579 b 147 528 268 579 201 556 l 75 658 b 361 744 140 703 250 744 b 664 460 594 744 664 622 l 664 0 l 494 0 l 482 47 b 306 -18 444 7 389 -18 b 33 225 158 -18 33 72 m 225 231 b 351 131 225 171 279 131 b 476 231 424 131 476 169 b 350 332 476 294 424 332 b 225 231 276 332 225 290 m 453 815 b 279 867 379 815 326 867 b 235 814 251 867 235 847 l 114 814 b 267 1000 114 925 175 1000 b 438 949 343 1000 393 949 b 482 1001 465 949 482 969 l 603 1001 b 453 815 603 888 543 815 "},"ä":{"ha":731,"x_min":0,"x_max":0,"o":"m 33 225 b 315 465 33 368 146 465 b 472 425 389 465 446 443 l 472 472 b 340 579 472 536 425 579 b 147 528 268 579 201 556 l 75 658 b 361 744 140 703 250 744 b 664 460 594 744 664 622 l 664 0 l 494 0 l 482 47 b 306 -18 444 7 389 -18 b 33 225 158 -18 33 72 m 225 231 b 351 131 225 171 279 131 b 476 231 424 131 476 169 b 350 332 476 294 424 332 b 225 231 276 332 225 290 m 239 813 b 144 907 183 813 144 854 b 239 1001 144 958 183 1001 b 333 907 293 1001 333 958 b 239 813 333 854 293 813 m 506 813 b 411 907 449 813 411 854 b 506 1001 411 958 449 1001 b 600 907 560 1001 600 958 b 506 813 600 854 560 813 "},"â":{"ha":731,"x_min":0,"x_max":0,"o":"m 33 225 b 315 465 33 368 146 465 b 472 425 389 465 446 443 l 472 472 b 340 579 472 536 425 579 b 147 528 268 579 201 556 l 75 658 b 361 744 140 703 250 744 b 664 460 594 744 664 622 l 664 0 l 494 0 l 482 47 b 306 -18 444 7 389 -18 b 33 225 158 -18 33 72 m 225 231 b 351 131 225 171 279 131 b 476 231 424 131 476 169 b 350 332 476 294 424 332 b 225 231 276 332 225 290 m 365 910 l 297 811 l 135 811 l 267 1006 l 464 1006 l 596 811 l 433 811 "},"à":{"ha":731,"x_min":0,"x_max":0,"o":"m 33 225 b 315 465 33 368 146 465 b 472 425 389 465 446 443 l 472 472 b 340 579 472 536 425 579 b 147 528 268 579 201 556 l 75 658 b 361 744 140 703 250 744 b 664 460 594 744 664 622 l 664 0 l 494 0 l 482 47 b 306 -18 444 7 389 -18 b 33 225 158 -18 33 72 m 225 231 b 351 131 225 171 279 131 b 476 231 424 131 476 169 b 350 332 476 294 424 332 b 225 231 276 332 225 290 m 471 807 l 311 807 l 176 1007 l 378 1007 "},"é":{"ha":776,"x_min":0,"x_max":0,"o":"m 36 361 b 392 744 36 581 185 744 b 744 357 617 744 744 594 b 743 315 744 343 744 329 l 232 315 b 421 149 236 218 314 149 b 597 238 519 149 576 207 l 724 142 b 418 -18 696 90 599 -18 b 36 361 185 -18 36 143 m 550 440 b 394 588 546 529 482 588 b 238 440 304 588 246 524 m 386 1007 l 588 1007 l 453 807 l 293 807 "},"è":{"ha":776,"x_min":0,"x_max":0,"o":"m 36 361 b 392 744 36 581 185 744 b 744 357 617 744 744 594 b 743 315 744 343 744 329 l 232 315 b 421 149 236 218 314 149 b 597 238 519 149 576 207 l 724 142 b 418 -18 696 90 599 -18 b 36 361 185 -18 36 143 m 550 440 b 394 588 546 529 482 588 b 238 440 304 588 246 524 m 496 807 l 336 807 l 201 1007 l 403 1007 "},"ê":{"ha":776,"x_min":0,"x_max":0,"o":"m 36 361 b 392 744 36 581 185 744 b 744 357 617 744 744 594 b 743 315 744 343 744 329 l 232 315 b 421 149 236 218 314 149 b 597 238 519 149 576 207 l 724 142 b 418 -18 696 90 599 -18 b 36 361 185 -18 36 143 m 550 440 b 394 588 546 529 482 588 b 238 440 304 588 246 524 m 399 910 l 331 811 l 168 811 l 300 1006 l 497 1006 l 629 811 l 467 811 "},"ë":{"ha":776,"x_min":0,"x_max":0,"o":"m 36 361 b 392 744 36 581 185 744 b 744 357 617 744 744 594 b 743 315 744 343 744 329 l 232 315 b 421 149 236 218 314 149 b 597 238 519 149 576 207 l 724 142 b 418 -18 696 90 599 -18 b 36 361 185 -18 36 143 m 550 440 b 394 588 546 529 482 588 b 238 440 304 588 246 524 m 267 813 b 172 907 211 813 172 854 b 267 1001 172 958 211 1001 b 361 907 321 1001 361 958 b 267 813 361 854 321 813 m 533 813 b 439 907 476 813 439 854 b 533 1001 439 958 476 1001 b 628 907 588 1001 628 958 b 533 813 628 854 588 813 "},"ñ":{"ha":778,"x_min":0,"x_max":0,"o":"m 457 744 b 708 419 664 744 708 574 l 708 0 l 517 0 l 517 442 b 396 572 517 522 461 572 b 267 436 317 572 267 514 l 267 0 l 75 0 l 75 726 l 263 726 l 263 642 b 457 744 293 692 363 744 m 486 815 b 313 867 413 815 360 867 b 268 814 285 867 268 847 l 147 814 b 300 1000 147 925 208 1000 b 471 949 376 1000 426 949 b 515 1001 499 949 515 969 l 636 1001 b 486 815 636 888 576 815 "},"ó":{"ha":851,"x_min":0,"x_max":0,"o":"m 35 361 b 425 744 35 582 204 744 b 817 361 647 744 817 581 b 425 -18 817 142 653 -18 b 35 361 199 -18 35 142 m 226 361 b 425 151 226 238 311 151 b 625 361 540 151 625 238 b 425 575 625 485 540 575 b 226 361 310 575 226 486 m 417 1007 l 618 1007 l 483 807 l 324 807 "},"õ":{"ha":851,"x_min":0,"x_max":0,"o":"m 35 361 b 425 744 35 582 204 744 b 817 361 647 744 817 581 b 425 -18 817 142 653 -18 b 35 361 199 -18 35 142 m 226 361 b 425 151 226 238 311 151 b 625 361 540 151 625 238 b 425 575 625 485 540 575 b 226 361 310 575 226 486 m 522 815 b 349 867 449 815 396 867 b 304 814 321 867 304 847 l 183 814 b 336 1000 183 925 244 1000 b 507 949 413 1000 463 949 b 551 1001 535 949 551 969 l 672 1001 b 522 815 672 888 613 815 "},"ö":{"ha":851,"x_min":0,"x_max":0,"o":"m 35 361 b 425 744 35 582 204 744 b 817 361 647 744 817 581 b 425 -18 817 142 653 -18 b 35 361 199 -18 35 142 m 226 361 b 425 151 226 238 311 151 b 625 361 540 151 625 238 b 425 575 625 485 540 575 b 226 361 310 575 226 486 m 297 813 b 203 907 242 813 203 854 b 297 1001 203 958 242 1001 b 392 907 351 1001 392 958 b 297 813 392 854 351 813 m 564 813 b 469 907 507 813 469 854 b 564 1001 469 958 507 1001 b 658 907 618 1001 658 958 b 564 813 658 854 618 813 "},"ô":{"ha":851,"x_min":0,"x_max":0,"o":"m 35 361 b 425 744 35 582 204 744 b 817 361 647 744 817 581 b 425 -18 817 142 653 -18 b 35 361 199 -18 35 142 m 226 361 b 425 151 226 238 311 151 b 625 361 540 151 625 238 b 425 575 625 485 540 575 b 226 361 310 575 226 486 m 431 910 l 363 811 l 200 811 l 332 1006 l 529 1006 l 661 811 l 499 811 "},"ò":{"ha":851,"x_min":0,"x_max":0,"o":"m 35 361 b 425 744 35 582 204 744 b 817 361 647 744 817 581 b 425 -18 817 142 653 -18 b 35 361 199 -18 35 142 m 226 361 b 425 151 226 238 311 151 b 625 361 540 151 625 238 b 425 575 625 485 540 575 b 226 361 310 575 226 486 m 518 807 l 358 807 l 224 1007 l 425 1007 "},"ú":{"ha":772,"x_min":0,"x_max":0,"o":"m 321 -18 b 69 307 114 -18 69 153 l 69 726 l 261 726 l 261 285 b 382 154 261 204 317 154 b 511 290 461 154 511 213 l 511 726 l 703 726 l 703 0 l 515 0 l 515 85 b 321 -18 485 35 415 -18 m 381 1007 l 582 1007 l 447 807 l 288 807 "},"ü":{"ha":772,"x_min":0,"x_max":0,"o":"m 321 -18 b 69 307 114 -18 69 153 l 69 726 l 261 726 l 261 285 b 382 154 261 204 317 154 b 511 290 461 154 511 213 l 511 726 l 703 726 l 703 0 l 515 0 l 515 85 b 321 -18 485 35 415 -18 m 261 813 b 167 907 206 813 167 854 b 261 1001 167 958 206 1001 b 356 907 315 1001 356 958 b 261 813 356 854 315 813 m 528 813 b 433 907 471 813 433 854 b 528 1001 433 958 471 1001 b 622 907 582 1001 622 958 b 528 813 622 854 582 813 "},"û":{"ha":772,"x_min":0,"x_max":0,"o":"m 321 -18 b 69 307 114 -18 69 153 l 69 726 l 261 726 l 261 285 b 382 154 261 204 317 154 b 511 290 461 154 511 213 l 511 726 l 703 726 l 703 0 l 515 0 l 515 85 b 321 -18 485 35 415 -18 m 390 910 l 322 811 l 160 811 l 292 1006 l 489 1006 l 621 811 l 458 811 "},"ù":{"ha":772,"x_min":0,"x_max":0,"o":"m 321 -18 b 69 307 114 -18 69 153 l 69 726 l 261 726 l 261 285 b 382 154 261 204 317 154 b 511 290 461 154 511 213 l 511 726 l 703 726 l 703 0 l 515 0 l 515 85 b 321 -18 485 35 415 -18 m 493 807 l 333 807 l 199 1007 l 400 1007 "},"Ä":{"ha":917,"x_min":0,"x_max":0,"o":"m 293 250 l 208 0 l 11 0 l 356 972 l 561 972 l 906 0 l 708 0 l 624 250 m 458 763 l 346 413 l 572 413 m 325 1033 b 231 1128 269 1033 231 1075 b 325 1222 231 1179 269 1222 b 419 1128 379 1222 419 1179 b 325 1033 419 1075 379 1033 m 592 1033 b 497 1128 535 1033 497 1075 b 592 1222 497 1179 535 1222 b 686 1128 646 1222 686 1179 b 592 1033 686 1075 646 1033 "},"Ö":{"ha":1096,"x_min":0,"x_max":0,"o":"m 547 -18 b 42 486 249 -18 42 200 b 547 990 42 769 249 990 b 1053 486 846 990 1053 769 b 547 -18 1053 200 846 -18 m 547 807 b 246 486 372 807 246 669 b 547 165 246 300 372 165 b 849 486 722 165 849 300 b 547 807 849 669 722 807 m 418 1033 b 324 1128 363 1033 324 1075 b 418 1222 324 1179 363 1222 b 513 1128 472 1222 513 1179 b 418 1033 513 1075 472 1033 m 685 1033 b 590 1128 628 1033 590 1075 b 685 1222 590 1179 628 1222 b 779 1128 739 1222 779 1179 b 685 1033 779 1075 739 1033 "},"Ü":{"ha":961,"x_min":0,"x_max":0,"o":"m 481 -18 b 89 365 229 -18 89 136 l 89 972 l 285 972 l 285 365 b 481 164 285 242 356 164 b 676 365 606 164 676 242 l 676 972 l 872 972 l 872 365 b 481 -18 872 136 732 -18 m 351 1033 b 257 1128 296 1033 257 1075 b 351 1222 257 1179 296 1222 b 446 1128 406 1222 446 1179 b 351 1033 446 1075 406 1033 m 618 1033 b 524 1128 561 1033 524 1075 b 618 1222 524 1179 561 1222 b 713 1128 672 1222 713 1179 b 618 1033 713 1075 672 1033 "},"Ë":{"ha":668,"x_min":0,"x_max":0,"o":"m 93 972 l 593 972 l 593 796 l 289 796 l 289 579 l 550 579 l 550 406 l 289 406 l 289 175 l 606 175 l 606 0 l 93 0 m 217 1033 b 122 1128 161 1033 122 1075 b 217 1222 122 1179 161 1222 b 311 1128 271 1222 311 1179 b 217 1033 311 1075 271 1033 m 483 1033 b 389 1128 426 1033 389 1075 b 483 1222 389 1179 426 1222 b 578 1128 538 1222 578 1179 b 483 1033 578 1075 538 1033 "},"Ï":{"ha":382,"x_min":0,"x_max":0,"o":"m 93 972 l 289 972 l 289 0 l 93 0 m 67 1033 b -28 1128 11 1033 -28 1075 b 67 1222 -28 1179 11 1222 b 161 1128 121 1222 161 1179 b 67 1033 161 1075 121 1033 m 333 1033 b 239 1128 276 1033 239 1075 b 333 1222 239 1179 276 1222 b 428 1128 388 1222 428 1179 b 333 1033 428 1075 388 1033 "},"Å":{"ha":917,"x_min":0,"x_max":0,"o":"m 293 250 l 208 0 l 11 0 l 356 972 l 561 972 l 906 0 l 708 0 l 624 250 m 458 763 l 346 413 l 572 413 m 457 1015 b 310 1153 374 1015 310 1072 b 457 1290 310 1235 374 1290 b 607 1154 543 1290 607 1235 b 457 1015 607 1072 543 1015 m 458 1099 b 511 1154 490 1099 511 1121 b 458 1207 511 1185 490 1207 b 406 1153 426 1207 406 1185 b 458 1099 406 1121 426 1099 "},"É":{"ha":668,"x_min":0,"x_max":0,"o":"m 93 972 l 593 972 l 593 796 l 289 796 l 289 579 l 550 579 l 550 406 l 289 406 l 289 175 l 606 175 l 606 0 l 93 0 m 340 1225 l 542 1225 l 407 1025 l 247 1025 "},"Á":{"ha":917,"x_min":0,"x_max":0,"o":"m 293 250 l 208 0 l 11 0 l 356 972 l 561 972 l 906 0 l 708 0 l 624 250 m 458 763 l 346 413 l 572 413 m 457 1225 l 658 1225 l 524 1025 l 364 1025 "},"Ú":{"ha":961,"x_min":0,"x_max":0,"o":"m 481 -18 b 89 365 229 -18 89 136 l 89 972 l 285 972 l 285 365 b 481 164 285 242 356 164 b 676 365 606 164 676 242 l 676 972 l 872 972 l 872 365 b 481 -18 872 136 732 -18 m 482 1225 l 683 1225 l 549 1025 l 389 1025 "},"Í":{"ha":382,"x_min":0,"x_max":0,"o":"m 93 972 l 289 972 l 289 0 l 93 0 m 189 1225 l 390 1225 l 256 1025 l 96 1025 "},"Ó":{"ha":1094,"x_min":0,"x_max":0,"o":"m 547 -18 b 42 486 249 -18 42 200 b 547 990 42 769 249 990 b 1053 486 846 990 1053 769 b 547 -18 1053 200 846 -18 m 547 807 b 246 486 372 807 246 669 b 547 165 246 300 372 165 b 849 486 722 165 849 300 b 547 807 849 669 722 807 m 542 1225 l 743 1225 l 608 1025 l 449 1025 "},"ÿ":{"ha":750,"x_min":0,"x_max":0,"o":"m 186 -249 l 288 18 l 8 726 l 214 726 l 376 253 l 540 726 l 740 726 l 369 -249 m 244 813 b 150 907 189 813 150 854 b 244 1001 150 958 189 1001 b 339 907 299 1001 339 958 b 244 813 339 854 299 813 m 511 813 b 417 907 454 813 417 854 b 511 1001 417 958 454 1001 b 606 907 565 1001 606 958 b 511 813 606 854 565 813 "},"Ÿ":{"ha":811,"x_min":0,"x_max":0,"o":"m 308 444 l 10 972 l 231 972 l 406 624 l 581 972 l 801 972 l 503 444 l 503 0 l 308 0 m 274 1042 b 179 1136 218 1042 179 1083 b 274 1231 179 1188 218 1231 b 368 1136 328 1231 368 1188 b 274 1042 368 1083 328 1042 m 540 1042 b 446 1136 483 1042 446 1083 b 540 1231 446 1188 483 1231 b 635 1136 594 1231 635 1188 b 540 1042 635 1083 594 1042 "},"À":{"ha":917,"x_min":0,"x_max":0,"o":"m 293 250 l 208 0 l 11 0 l 356 972 l 561 972 l 906 0 l 708 0 l 624 250 m 458 763 l 346 413 l 572 413 m 543 1025 l 383 1025 l 249 1225 l 450 1225 "},"Ò":{"ha":1094,"x_min":0,"x_max":0,"o":"m 547 -18 b 42 486 249 -18 42 200 b 547 990 42 769 249 990 b 1053 486 846 990 1053 769 b 547 -18 1053 200 846 -18 m 547 807 b 246 486 372 807 246 669 b 547 165 246 300 372 165 b 849 486 722 165 849 300 b 547 807 849 669 722 807 m 640 1025 l 481 1025 l 346 1225 l 547 1225 "},"Ì":{"ha":382,"x_min":0,"x_max":0,"o":"m 93 972 l 289 972 l 289 0 l 93 0 m 297 1025 l 138 1025 l 3 1225 l 204 1225 "},"È":{"ha":668,"x_min":0,"x_max":0,"o":"m 93 972 l 593 972 l 593 796 l 289 796 l 289 579 l 550 579 l 550 406 l 289 406 l 289 175 l 606 175 l 606 0 l 93 0 m 457 1025 l 297 1025 l 163 1225 l 364 1225 "},"Ù":{"ha":961,"x_min":0,"x_max":0,"o":"m 481 -18 b 89 365 229 -18 89 136 l 89 972 l 285 972 l 285 365 b 481 164 285 242 356 164 b 676 365 606 164 676 242 l 676 972 l 872 972 l 872 365 b 481 -18 872 136 732 -18 m 579 1025 l 419 1025 l 285 1225 l 486 1225 "},"Ñ":{"ha":990,"x_min":0,"x_max":0,"o":"m 285 658 l 285 0 l 92 0 l 92 972 l 290 972 l 706 308 l 706 972 l 899 972 l 899 0 l 704 0 m 594 1033 b 421 1085 521 1033 468 1085 b 376 1032 393 1085 376 1065 l 256 1032 b 408 1218 256 1143 317 1218 b 579 1167 485 1218 535 1167 b 624 1219 607 1167 624 1188 l 744 1219 b 594 1033 744 1106 685 1033 "},"Ã":{"ha":917,"x_min":0,"x_max":0,"o":"m 293 250 l 208 0 l 11 0 l 356 972 l 561 972 l 906 0 l 708 0 l 624 250 m 458 763 l 346 413 l 572 413 m 553 1033 b 379 1085 479 1033 426 1085 b 335 1032 351 1085 335 1065 l 214 1032 b 367 1218 214 1143 275 1218 b 538 1167 443 1218 493 1167 b 582 1219 565 1167 582 1188 l 703 1219 b 553 1033 703 1106 643 1033 "},"Õ":{"ha":1094,"x_min":0,"x_max":0,"o":"m 547 -18 b 42 486 249 -18 42 200 b 547 990 42 769 249 990 b 1053 486 846 990 1053 769 b 547 -18 1053 200 846 -18 m 547 807 b 246 486 372 807 246 669 b 547 165 246 300 372 165 b 849 486 722 165 849 300 b 547 807 849 669 722 807 m 643 1033 b 469 1085 569 1033 517 1085 b 425 1032 442 1085 425 1065 l 304 1032 b 457 1218 304 1143 365 1218 b 628 1167 533 1218 583 1167 b 672 1219 656 1167 672 1188 l 793 1219 b 643 1033 793 1106 733 1033 "},"Â":{"ha":917,"x_min":0,"x_max":0,"o":"m 293 250 l 208 0 l 11 0 l 356 972 l 561 972 l 906 0 l 708 0 l 624 250 m 458 763 l 346 413 l 572 413 m 458 1125 l 390 1026 l 228 1026 l 360 1221 l 557 1221 l 689 1026 l 526 1026 "},"Ê":{"ha":668,"x_min":0,"x_max":0,"o":"m 93 972 l 593 972 l 593 796 l 289 796 l 289 579 l 550 579 l 550 406 l 289 406 l 289 175 l 606 175 l 606 0 l 93 0 m 349 1125 l 281 1026 l 118 1026 l 250 1221 l 447 1221 l 579 1026 l 417 1026 "},"Î":{"ha":382,"x_min":0,"x_max":0,"o":"m 93 972 l 289 972 l 289 0 l 93 0 m 194 1125 l 126 1026 l -36 1026 l 96 1221 l 293 1221 l 425 1026 l 263 1026 "},"Ô":{"ha":1094,"x_min":0,"x_max":0,"o":"m 547 -18 b 42 486 249 -18 42 200 b 547 990 42 769 249 990 b 1053 486 846 990 1053 769 b 547 -18 1053 200 846 -18 m 547 807 b 246 486 372 807 246 669 b 547 165 246 300 372 165 b 849 486 722 165 849 300 b 547 807 849 669 722 807 m 551 1125 l 483 1026 l 321 1026 l 453 1221 l 650 1221 l 782 1026 l 619 1026 "},"Û":{"ha":961,"x_min":0,"x_max":0,"o":"m 481 -18 b 89 365 229 -18 89 136 l 89 972 l 285 972 l 285 365 b 481 164 285 242 356 164 b 676 365 606 164 676 242 l 676 972 l 872 972 l 872 365 b 481 -18 872 136 732 -18 m 481 1125 l 413 1026 l 250 1026 l 382 1221 l 579 1221 l 711 1026 l 549 1026 "},"Ý":{"ha":811,"x_min":0,"x_max":0,"o":"m 308 444 l 10 972 l 231 972 l 406 624 l 581 972 l 801 972 l 503 444 l 503 0 l 308 0 m 410 1225 l 611 1225 l 476 1025 l 317 1025 "},"Ţ":{"ha":710,"x_min":0,"x_max":0,"o":"m 257 796 l 29 796 l 29 972 l 679 972 l 679 796 l 453 796 l 453 0 l 388 0 l 379 -54 b 485 -182 447 -68 485 -121 b 314 -324 485 -272 408 -324 b 233 -311 286 -324 247 -315 l 256 -212 b 301 -219 267 -215 283 -219 b 361 -174 333 -219 361 -206 b 292 -131 361 -143 326 -131 b 268 -133 281 -131 268 -133 l 288 0 l 257 0 "},"ţ":{"ha":463,"x_min":0,"x_max":0,"o":"m 93 879 l 282 879 l 282 726 l 418 726 l 418 571 l 282 571 l 282 290 b 389 160 282 182 315 160 b 424 161 401 160 408 160 l 424 -3 b 342 -10 424 -3 394 -10 b 294 -7 325 -10 310 -8 l 288 -54 b 393 -182 356 -68 393 -121 b 222 -324 393 -272 317 -324 b 142 -311 194 -324 156 -315 l 164 -212 b 210 -219 175 -215 192 -219 b 269 -174 242 -219 269 -206 b 200 -131 269 -143 235 -131 b 176 -133 189 -131 176 -133 l 194 26 b 92 285 124 71 92 157 l 92 571 l 15 571 l 15 726 l 93 726 "},"ý":{"ha":750,"x_min":0,"x_max":0,"o":"m 186 -249 l 288 18 l 8 726 l 214 726 l 376 253 l 540 726 l 740 726 l 369 -249 m 375 1007 l 576 1007 l 442 807 l 282 807 "},"Ā":{"ha":917,"x_min":0,"x_max":0,"o":"m 293 250 l 208 0 l 11 0 l 356 972 l 561 972 l 906 0 l 708 0 l 624 250 m 458 763 l 346 413 l 572 413 m 272 1183 l 644 1183 l 644 1043 l 272 1043 "},"ā":{"ha":731,"x_min":0,"x_max":0,"o":"m 33 225 b 315 465 33 368 146 465 b 472 425 389 465 446 443 l 472 472 b 340 579 472 536 425 579 b 147 528 268 579 201 556 l 75 658 b 361 744 140 703 250 744 b 664 460 594 744 664 622 l 664 0 l 494 0 l 482 47 b 306 -18 444 7 389 -18 b 33 225 158 -18 33 72 m 225 231 b 351 131 225 171 279 131 b 476 231 424 131 476 169 b 350 332 476 294 424 332 b 225 231 276 332 225 290 m 185 978 l 557 978 l 557 838 l 185 838 "},"Ă":{"ha":917,"x_min":0,"x_max":0,"o":"m 293 250 l 208 0 l 11 0 l 356 972 l 561 972 l 906 0 l 708 0 l 624 250 m 458 763 l 346 413 l 572 413 m 458 1029 b 249 1228 325 1029 249 1113 l 386 1228 b 458 1142 386 1185 401 1142 b 532 1228 517 1142 532 1185 l 669 1228 b 458 1029 669 1113 594 1029 "},"ă":{"ha":731,"x_min":0,"x_max":0,"o":"m 33 225 b 315 465 33 368 146 465 b 472 425 389 465 446 443 l 472 472 b 340 579 472 536 425 579 b 147 528 268 579 201 556 l 75 658 b 361 744 140 703 250 744 b 664 460 594 744 664 622 l 664 0 l 494 0 l 482 47 b 306 -18 444 7 389 -18 b 33 225 158 -18 33 72 m 225 231 b 351 131 225 171 279 131 b 476 231 424 131 476 169 b 350 332 476 294 424 332 b 225 231 276 332 225 290 m 363 807 b 153 1006 229 807 153 890 l 290 1006 b 363 919 290 963 306 919 b 436 1006 421 919 436 963 l 574 1006 b 363 807 574 890 499 807 "},"ș":{"ha":604,"x_min":0,"x_max":0,"o":"m 297 -18 b 26 117 154 -18 65 54 l 139 217 b 306 138 175 175 224 138 b 394 203 360 138 394 161 b 51 529 394 314 51 271 b 315 744 51 664 167 744 b 564 615 453 744 529 672 l 438 521 b 307 590 415 549 375 590 b 232 532 263 590 232 568 b 576 213 232 417 576 472 b 297 -18 576 71 454 -18 m 214 -333 b 282 -243 239 -314 272 -281 b 200 -143 228 -232 200 -186 b 304 -40 200 -86 247 -40 b 413 -160 367 -40 413 -87 b 281 -404 413 -260 357 -351 l 214 -333 "},"Ș":{"ha":724,"x_min":0,"x_max":0,"o":"m 365 990 b 665 778 561 990 642 849 l 503 704 b 361 810 482 750 446 810 b 256 717 294 810 256 769 b 678 278 256 556 678 579 b 353 -18 678 107 556 -18 b 31 207 144 -18 58 128 l 196 288 b 364 164 222 224 276 164 b 479 264 436 164 479 201 b 60 714 479 431 60 403 b 365 990 60 878 179 990 m 261 -333 b 329 -243 286 -314 319 -281 b 247 -143 275 -232 247 -186 b 351 -40 247 -86 294 -40 b 460 -160 414 -40 460 -87 b 328 -404 460 -260 404 -351 l 261 -333 "},"Ć":{"ha":886,"x_min":0,"x_max":0,"o":"m 549 -18 b 42 486 244 -18 42 200 b 549 990 42 772 256 990 b 838 901 678 990 775 947 l 782 729 b 549 807 735 763 647 807 b 246 486 372 807 246 669 b 549 165 246 300 372 165 b 790 244 654 165 744 213 l 846 74 b 549 -18 788 31 690 -18 m 514 1225 l 715 1225 l 581 1025 l 421 1025 "},"ž":{"ha":650,"x_min":0,"x_max":0,"o":"m 276 160 l 608 160 l 608 0 l 39 0 l 39 118 l 367 567 l 49 567 l 49 726 l 604 726 l 604 607 m 397 1006 l 560 1006 l 428 811 l 231 811 l 99 1006 l 261 1006 l 329 907 "},"Ž":{"ha":838,"x_min":0,"x_max":0,"o":"m 44 128 l 522 799 l 58 799 l 58 972 l 783 972 l 783 844 l 303 174 l 788 174 l 788 0 l 44 0 m 485 1221 l 647 1221 l 515 1026 l 318 1026 l 186 1221 l 349 1221 l 417 1122 "},"ć":{"ha":681,"x_min":0,"x_max":0,"o":"m 433 151 b 597 217 507 151 565 190 l 649 60 b 422 -18 607 26 528 -18 b 35 361 196 -18 35 140 b 421 744 35 582 200 744 b 650 667 528 744 603 703 l 596 506 b 426 575 564 535 508 575 b 226 363 303 575 226 479 b 433 151 226 239 313 151 m 390 1007 l 592 1007 l 457 807 l 297 807 "},"Ĉ":{"ha":886,"x_min":0,"x_max":0,"o":"m 549 -18 b 42 486 244 -18 42 200 b 549 990 42 772 256 990 b 838 901 678 990 775 947 l 782 729 b 549 807 735 763 647 807 b 246 486 372 807 246 669 b 549 165 246 300 372 165 b 790 244 654 165 744 213 l 846 74 b 549 -18 788 31 690 -18 m 544 1125 l 476 1026 l 314 1026 l 446 1221 l 643 1221 l 775 1026 l 613 1026 "},"ĉ":{"ha":681,"x_min":0,"x_max":0,"o":"m 433 151 b 597 217 507 151 565 190 l 649 60 b 422 -18 607 26 528 -18 b 35 361 196 -18 35 140 b 421 744 35 582 200 744 b 650 667 528 744 603 703 l 596 506 b 426 575 564 535 508 575 b 226 363 303 575 226 479 b 433 151 226 239 313 151 m 414 910 l 346 811 l 183 811 l 315 1006 l 513 1006 l 644 811 l 482 811 "},"ď":{"ha":861,"x_min":0,"x_max":0,"o":"m 840 1004 l 1021 1004 l 957 763 l 831 763 m 786 0 l 606 0 l 606 75 b 390 -18 586 51 514 -18 b 35 363 182 -18 35 139 b 379 744 35 588 171 744 b 594 650 504 744 576 675 l 594 1004 l 786 1004 m 600 361 b 414 575 600 497 519 575 b 228 361 303 575 228 488 b 414 151 228 232 306 151 b 600 361 531 151 600 246 "},"Ċ":{"ha":886,"x_min":0,"x_max":0,"o":"m 549 -18 b 42 486 244 -18 42 200 b 549 990 42 772 256 990 b 838 901 678 990 775 947 l 782 729 b 549 807 735 763 647 807 b 246 486 372 807 246 669 b 549 165 246 300 372 165 b 790 244 654 165 744 213 l 846 74 b 549 -18 788 31 690 -18 m 438 1124 b 549 1233 438 1186 486 1233 b 661 1124 613 1233 661 1186 b 549 1014 661 1061 613 1014 b 438 1124 486 1014 438 1061 "},"ċ":{"ha":681,"x_min":0,"x_max":0,"o":"m 432 151 b 596 217 506 151 564 190 l 647 60 b 421 -18 606 26 526 -18 b 33 361 194 -18 33 140 b 419 744 33 582 199 744 b 649 667 526 744 601 703 l 594 506 b 425 575 563 535 507 575 b 225 363 301 575 225 479 b 432 151 225 239 311 151 m 307 901 b 418 1011 307 964 356 1011 b 531 901 482 1011 531 964 b 418 792 531 839 482 792 b 307 901 356 792 307 839 "},"ż":{"ha":650,"x_min":0,"x_max":0,"o":"m 276 160 l 608 160 l 608 0 l 39 0 l 39 118 l 367 567 l 49 567 l 49 726 l 604 726 l 604 607 m 219 901 b 331 1011 219 964 268 1011 b 443 901 394 1011 443 964 b 331 792 443 839 394 792 b 219 901 268 792 219 839 "},"Č":{"ha":886,"x_min":0,"x_max":0,"o":"m 549 -18 b 42 486 244 -18 42 200 b 549 990 42 772 256 990 b 838 901 678 990 775 947 l 782 729 b 549 807 735 763 647 807 b 246 486 372 807 246 669 b 549 165 246 300 372 165 b 790 244 654 165 744 213 l 846 74 b 549 -18 788 31 690 -18 m 613 1221 l 775 1221 l 643 1026 l 446 1026 l 314 1221 l 476 1221 l 544 1122 "},"č":{"ha":681,"x_min":0,"x_max":0,"o":"m 433 151 b 597 217 507 151 565 190 l 649 60 b 422 -18 607 26 528 -18 b 35 361 196 -18 35 140 b 421 744 35 582 200 744 b 650 667 528 744 603 703 l 596 506 b 426 575 564 535 508 575 b 226 363 303 575 226 479 b 433 151 226 239 313 151 m 478 1006 l 640 1006 l 508 811 l 311 811 l 179 1006 l 342 1006 l 410 907 "},"Ď":{"ha":910,"x_min":0,"x_max":0,"o":"m 93 972 l 351 972 b 867 486 669 972 867 790 b 351 0 867 175 668 0 l 93 0 m 358 169 b 663 486 543 169 663 276 b 358 801 663 690 543 801 l 289 801 l 289 169 m 458 1221 l 621 1221 l 489 1026 l 292 1026 l 160 1221 l 322 1221 l 390 1122 "},"Ē":{"ha":668,"x_min":0,"x_max":0,"o":"m 93 972 l 593 972 l 593 796 l 289 796 l 289 579 l 550 579 l 550 406 l 289 406 l 289 175 l 606 175 l 606 0 l 93 0 m 167 1183 l 539 1183 l 539 1043 l 167 1043 "},"ē":{"ha":776,"x_min":0,"x_max":0,"o":"m 36 361 b 392 744 36 581 185 744 b 744 357 617 744 744 594 b 743 315 744 343 744 329 l 232 315 b 421 149 236 218 314 149 b 597 238 519 149 576 207 l 724 142 b 418 -18 696 90 599 -18 b 36 361 185 -18 36 143 m 550 440 b 394 588 546 529 482 588 b 238 440 304 588 246 524 m 215 978 l 588 978 l 588 838 l 215 838 "},"Ĕ":{"ha":668,"x_min":0,"x_max":0,"o":"m 93 972 l 593 972 l 593 796 l 289 796 l 289 579 l 550 579 l 550 406 l 289 406 l 289 175 l 606 175 l 606 0 l 93 0 m 347 1029 b 138 1228 214 1029 138 1113 l 275 1228 b 347 1142 275 1185 290 1142 b 421 1228 406 1142 421 1185 l 558 1228 b 347 1029 558 1113 483 1029 "},"ĕ":{"ha":776,"x_min":0,"x_max":0,"o":"m 36 361 b 392 744 36 581 185 744 b 744 357 617 744 744 594 b 743 315 744 343 744 329 l 232 315 b 421 149 236 218 314 149 b 597 238 519 149 576 207 l 724 142 b 418 -18 696 90 599 -18 b 36 361 185 -18 36 143 m 550 440 b 394 588 546 529 482 588 b 238 440 304 588 246 524 m 392 807 b 182 1006 258 807 182 890 l 319 1006 b 392 919 319 963 335 919 b 465 1006 450 919 465 963 l 603 1006 b 392 807 603 890 528 807 "},"Ė":{"ha":668,"x_min":0,"x_max":0,"o":"m 93 972 l 593 972 l 593 796 l 289 796 l 289 579 l 550 579 l 550 406 l 289 406 l 289 175 l 606 175 l 606 0 l 93 0 m 246 1124 b 357 1233 246 1186 294 1233 b 469 1124 421 1233 469 1186 b 357 1014 469 1061 421 1014 b 246 1124 294 1014 246 1061 "},"ė":{"ha":776,"x_min":0,"x_max":0,"o":"m 36 361 b 392 744 36 581 185 744 b 744 357 617 744 744 594 b 743 315 744 343 744 329 l 232 315 b 421 149 236 218 314 149 b 597 238 519 149 576 207 l 724 142 b 418 -18 696 90 599 -18 b 36 361 185 -18 36 143 m 550 440 b 394 588 546 529 482 588 b 238 440 304 588 246 524 m 286 901 b 397 1011 286 964 335 1011 b 510 901 461 1011 510 964 b 397 792 510 839 461 792 b 286 901 335 792 286 839 "},"Ě":{"ha":668,"x_min":0,"x_max":0,"o":"m 93 972 l 593 972 l 593 796 l 289 796 l 289 579 l 550 579 l 550 406 l 289 406 l 289 175 l 606 175 l 606 0 l 93 0 m 428 1221 l 590 1221 l 458 1026 l 261 1026 l 129 1221 l 292 1221 l 360 1122 "},"ě":{"ha":776,"x_min":0,"x_max":0,"o":"m 36 361 b 392 744 36 581 185 744 b 744 357 617 744 744 594 b 743 315 744 343 744 329 l 232 315 b 421 149 236 218 314 149 b 597 238 519 149 576 207 l 724 142 b 418 -18 696 90 599 -18 b 36 361 185 -18 36 143 m 550 440 b 394 588 546 529 482 588 b 238 440 304 588 246 524 m 463 1006 l 625 1006 l 493 811 l 296 811 l 164 1006 l 326 1006 l 394 907 "},"Ĝ":{"ha":1038,"x_min":0,"x_max":0,"o":"m 546 990 b 929 829 750 990 879 889 l 806 701 b 554 808 776 733 693 808 b 246 486 364 808 246 667 b 554 165 246 288 379 165 b 788 242 690 165 767 221 l 788 361 l 603 361 l 603 526 l 971 526 l 971 142 b 546 -18 867 53 750 -18 b 42 486 271 -18 42 179 b 546 990 42 765 250 990 m 551 1125 l 483 1026 l 321 1026 l 453 1221 l 650 1221 l 782 1026 l 619 1026 "},"ĝ":{"ha":854,"x_min":0,"x_max":0,"o":"m 186 -53 b 393 -103 210 -65 293 -103 b 593 42 497 -103 593 -71 l 593 75 b 381 -18 578 54 507 -18 b 33 363 171 -18 33 139 b 388 744 33 586 181 744 b 604 650 510 744 583 678 l 604 726 l 785 726 l 785 92 b 394 -267 785 -179 608 -267 b 128 -200 294 -267 193 -236 m 599 364 b 411 575 599 488 524 575 b 226 364 303 575 226 492 b 413 151 226 236 304 151 b 599 364 524 151 599 235 m 428 910 l 360 811 l 197 811 l 329 1006 l 526 1006 l 658 811 l 496 811 "},"Ż":{"ha":838,"x_min":0,"x_max":0,"o":"m 44 128 l 522 799 l 58 799 l 58 972 l 783 972 l 783 844 l 303 174 l 788 174 l 788 0 l 44 0 m 307 1124 b 418 1233 307 1186 356 1233 b 531 1124 482 1233 531 1186 b 418 1014 531 1061 482 1014 b 307 1124 356 1014 307 1061 "},"ź":{"ha":650,"x_min":0,"x_max":0,"o":"m 276 160 l 608 160 l 608 0 l 39 0 l 39 118 l 367 567 l 49 567 l 49 726 l 604 726 l 604 607 m 313 1007 l 514 1007 l 379 807 l 219 807 "},"Ğ":{"ha":1038,"x_min":0,"x_max":0,"o":"m 546 990 b 929 829 750 990 879 889 l 806 701 b 554 808 776 733 693 808 b 246 486 364 808 246 667 b 554 165 246 288 379 165 b 788 242 690 165 767 221 l 788 361 l 603 361 l 603 526 l 971 526 l 971 142 b 546 -18 867 53 750 -18 b 42 486 271 -18 42 179 b 546 990 42 765 250 990 m 549 1029 b 339 1228 415 1029 339 1113 l 476 1228 b 549 1142 476 1185 492 1142 b 622 1228 607 1142 622 1185 l 760 1228 b 549 1029 760 1113 685 1029 "},"ğ":{"ha":854,"x_min":0,"x_max":0,"o":"m 186 -53 b 393 -103 210 -65 293 -103 b 593 42 497 -103 593 -71 l 593 75 b 381 -18 578 54 507 -18 b 33 363 171 -18 33 139 b 388 744 33 586 181 744 b 604 650 510 744 583 678 l 604 726 l 785 726 l 785 92 b 394 -267 785 -179 608 -267 b 128 -200 294 -267 193 -236 m 599 364 b 411 575 599 488 524 575 b 226 364 303 575 226 492 b 413 151 226 236 304 151 b 599 364 524 151 599 235 m 425 807 b 215 1006 292 807 215 890 l 353 1006 b 425 919 353 963 368 919 b 499 1006 483 919 499 963 l 636 1006 b 425 807 636 890 561 807 "},"Ź":{"ha":838,"x_min":0,"x_max":0,"o":"m 44 128 l 522 799 l 58 799 l 58 972 l 783 972 l 783 844 l 303 174 l 788 174 l 788 0 l 44 0 m 406 1225 l 607 1225 l 472 1025 l 313 1025 "},"ŷ":{"ha":750,"x_min":0,"x_max":0,"o":"m 186 -249 l 288 18 l 8 726 l 214 726 l 376 253 l 540 726 l 740 726 l 369 -249 m 379 910 l 311 811 l 149 811 l 281 1006 l 478 1006 l 610 811 l 447 811 "},"Ŷ":{"ha":811,"x_min":0,"x_max":0,"o":"m 308 444 l 10 972 l 231 972 l 406 624 l 581 972 l 801 972 l 503 444 l 503 0 l 308 0 m 407 1125 l 339 1026 l 176 1026 l 308 1221 l 506 1221 l 638 1026 l 475 1026 "},"ŵ":{"ha":1150,"x_min":0,"x_max":0,"o":"m 575 465 l 440 0 l 226 0 l 10 726 l 218 726 l 346 211 l 485 726 l 665 726 l 803 211 l 932 726 l 1140 726 l 922 0 l 708 0 m 575 910 l 507 811 l 344 811 l 476 1006 l 674 1006 l 806 811 l 643 811 "},"Ġ":{"ha":1038,"x_min":0,"x_max":0,"o":"m 546 990 b 929 829 750 990 879 889 l 806 701 b 554 808 776 733 693 808 b 246 486 364 808 246 667 b 554 165 246 288 379 165 b 788 242 690 165 767 221 l 788 361 l 603 361 l 603 526 l 971 526 l 971 142 b 546 -18 867 53 750 -18 b 42 486 271 -18 42 179 b 546 990 42 765 250 990 m 443 1124 b 554 1233 443 1186 492 1233 b 667 1124 618 1233 667 1186 b 554 1014 667 1061 618 1014 b 443 1124 492 1014 443 1061 "},"ġ":{"ha":854,"x_min":0,"x_max":0,"o":"m 186 -53 b 393 -103 210 -65 293 -103 b 593 42 497 -103 593 -71 l 593 75 b 381 -18 578 54 507 -18 b 33 363 171 -18 33 139 b 388 744 33 586 181 744 b 604 650 510 744 583 678 l 604 726 l 785 726 l 785 92 b 394 -267 785 -179 608 -267 b 128 -200 294 -267 193 -236 m 599 364 b 411 575 599 488 524 575 b 226 364 303 575 226 492 b 413 151 226 236 304 151 b 599 364 524 151 599 235 m 315 901 b 426 1011 315 964 364 1011 b 539 901 490 1011 539 964 b 426 792 539 839 490 792 b 315 901 364 792 315 839 "},"Ģ":{"ha":1038,"x_min":0,"x_max":0,"o":"m 546 990 b 929 829 750 990 879 889 l 806 701 b 554 808 776 733 693 808 b 246 486 364 808 246 667 b 554 165 246 288 379 165 b 788 242 690 165 767 221 l 788 361 l 603 361 l 603 526 l 971 526 l 971 142 b 546 -18 867 53 750 -18 b 42 486 271 -18 42 179 b 546 990 42 765 250 990 m 471 -333 b 539 -243 496 -314 529 -281 b 457 -143 485 -232 457 -186 b 561 -40 457 -86 504 -40 b 669 -160 624 -40 669 -87 b 538 -404 669 -260 614 -351 l 471 -333 "},"Ĥ":{"ha":982,"x_min":0,"x_max":0,"o":"m 93 972 l 289 972 l 289 578 l 693 578 l 693 972 l 889 972 l 889 0 l 693 0 l 693 401 l 289 401 l 289 0 l 93 0 m 497 1125 l 429 1026 l 267 1026 l 399 1221 l 596 1221 l 728 1026 l 565 1026 "},"Ŵ":{"ha":1357,"x_min":0,"x_max":0,"o":"m 678 671 l 494 0 l 274 0 l 13 972 l 226 972 l 394 244 l 588 972 l 768 972 l 961 244 l 1131 972 l 1343 972 l 1083 0 l 861 0 m 679 1125 l 611 1026 l 449 1026 l 581 1221 l 778 1221 l 910 1026 l 747 1026 "},"ű":{"ha":772,"x_min":0,"x_max":0,"o":"m 321 -18 b 69 307 114 -18 69 153 l 69 726 l 261 726 l 261 285 b 382 154 261 204 317 154 b 511 290 461 154 511 213 l 511 726 l 703 726 l 703 0 l 515 0 l 515 85 b 321 -18 485 35 415 -18 m 508 1007 l 692 1007 l 558 807 l 414 807 m 265 1007 l 450 1007 l 315 807 l 172 807 "},"Ű":{"ha":965,"x_min":0,"x_max":0,"o":"m 481 -18 b 89 365 229 -18 89 136 l 89 972 l 285 972 l 285 365 b 481 164 285 242 356 164 b 676 365 606 164 676 242 l 676 972 l 872 972 l 872 365 b 481 -18 872 136 732 -18 m 622 1225 l 806 1225 l 672 1025 l 528 1025 m 379 1225 l 564 1225 l 429 1025 l 286 1025 "},"Ť":{"ha":710,"x_min":0,"x_max":0,"o":"m 257 796 l 29 796 l 29 972 l 679 972 l 679 796 l 453 796 l 453 0 l 257 0 m 422 1221 l 585 1221 l 453 1026 l 256 1026 l 124 1221 l 286 1221 l 354 1122 "},"ů":{"ha":772,"x_min":0,"x_max":0,"o":"m 321 -18 b 69 307 114 -18 69 153 l 69 726 l 261 726 l 261 285 b 382 154 261 204 317 154 b 511 290 461 154 511 213 l 511 726 l 703 726 l 703 0 l 515 0 l 515 85 b 321 -18 485 35 415 -18 m 390 783 b 243 921 307 783 243 840 b 390 1058 243 1003 307 1058 b 540 922 476 1058 540 1003 b 390 783 540 840 476 783 m 392 867 b 444 922 424 867 444 889 b 392 975 444 953 424 975 b 339 921 360 975 339 953 b 392 867 339 889 360 867 "},"ť":{"ha":465,"x_min":0,"x_max":0,"o":"m 354 1004 l 535 1004 l 471 763 l 344 763 m 93 879 l 282 879 l 282 726 l 418 726 l 418 571 l 282 571 l 282 290 b 389 160 282 182 315 160 b 424 161 401 160 408 160 l 424 -3 b 342 -10 424 -3 394 -10 b 92 285 168 -10 92 88 l 92 571 l 15 571 l 15 726 l 93 726 "},"Ů":{"ha":961,"x_min":0,"x_max":0,"o":"m 481 -18 b 89 365 229 -18 89 136 l 89 972 l 285 972 l 285 365 b 481 164 285 242 356 164 b 676 365 606 164 676 242 l 676 972 l 872 972 l 872 365 b 481 -18 872 136 732 -18 m 483 1015 b 336 1153 400 1015 336 1072 b 483 1290 336 1235 400 1290 b 633 1154 569 1290 633 1235 b 483 1015 633 1072 569 1015 m 485 1099 b 538 1154 517 1099 538 1121 b 485 1207 538 1185 517 1207 b 432 1153 453 1207 432 1185 b 485 1099 432 1121 453 1099 "},"ŭ":{"ha":772,"x_min":0,"x_max":0,"o":"m 321 -18 b 69 307 114 -18 69 153 l 69 726 l 261 726 l 261 285 b 382 154 261 204 317 154 b 511 290 461 154 511 213 l 511 726 l 703 726 l 703 0 l 515 0 l 515 85 b 321 -18 485 35 415 -18 m 389 807 b 179 1006 256 807 179 890 l 317 1006 b 389 919 317 963 332 919 b 463 1006 447 919 463 963 l 600 1006 b 389 807 600 890 525 807 "},"Ŭ":{"ha":961,"x_min":0,"x_max":0,"o":"m 481 -18 b 89 365 229 -18 89 136 l 89 972 l 285 972 l 285 365 b 481 164 285 242 356 164 b 676 365 606 164 676 242 l 676 972 l 872 972 l 872 365 b 481 -18 872 136 732 -18 m 490 1029 b 281 1228 357 1029 281 1113 l 418 1228 b 490 1142 418 1185 433 1142 b 564 1228 549 1142 564 1185 l 701 1228 b 490 1029 701 1113 626 1029 "},"ū":{"ha":772,"x_min":0,"x_max":0,"o":"m 321 -18 b 69 307 114 -18 69 153 l 69 726 l 261 726 l 261 285 b 382 154 261 204 317 154 b 511 290 461 154 511 213 l 511 726 l 703 726 l 703 0 l 515 0 l 515 85 b 321 -18 485 35 415 -18 m 206 978 l 578 978 l 578 838 l 206 838 "},"Ū":{"ha":961,"x_min":0,"x_max":0,"o":"m 481 -18 b 89 365 229 -18 89 136 l 89 972 l 285 972 l 285 365 b 481 164 285 242 356 164 b 676 365 606 164 676 242 l 676 972 l 872 972 l 872 365 b 481 -18 872 136 732 -18 m 297 1183 l 669 1183 l 669 1043 l 297 1043 "},"ũ":{"ha":772,"x_min":0,"x_max":0,"o":"m 321 -18 b 69 307 114 -18 69 153 l 69 726 l 261 726 l 261 285 b 382 154 261 204 317 154 b 511 290 461 154 511 213 l 511 726 l 703 726 l 703 0 l 515 0 l 515 85 b 321 -18 485 35 415 -18 m 483 815 b 310 867 410 815 357 867 b 265 814 282 867 265 847 l 144 814 b 297 1000 144 925 206 1000 b 468 949 374 1000 424 949 b 513 1001 496 949 513 969 l 633 1001 b 483 815 633 888 574 815 "},"Ũ":{"ha":961,"x_min":0,"x_max":0,"o":"m 481 -18 b 89 365 229 -18 89 136 l 89 972 l 285 972 l 285 365 b 481 164 285 242 356 164 b 676 365 606 164 676 242 l 676 972 l 872 972 l 872 365 b 481 -18 872 136 732 -18 m 588 1033 b 414 1085 514 1033 461 1085 b 369 1032 386 1085 369 1065 l 249 1032 b 401 1218 249 1143 310 1218 b 572 1167 478 1218 528 1167 b 617 1219 600 1167 617 1188 l 738 1219 b 588 1033 738 1106 678 1033 "},"Ŧ":{"ha":710,"x_min":0,"x_max":0,"o":"m 99 574 l 260 574 l 260 796 l 32 796 l 32 972 l 682 972 l 682 796 l 456 796 l 456 574 l 615 574 l 615 431 l 456 431 l 456 0 l 260 0 l 260 431 l 99 431 "},"š":{"ha":604,"x_min":0,"x_max":0,"o":"m 297 -18 b 26 117 154 -18 65 54 l 139 217 b 306 138 175 175 224 138 b 394 203 360 138 394 161 b 51 529 394 314 51 271 b 315 744 51 664 167 744 b 564 615 453 744 529 672 l 438 521 b 307 590 415 549 375 590 b 232 532 263 590 232 568 b 576 213 232 417 576 472 b 297 -18 576 71 454 -18 m 381 1006 l 543 1006 l 411 811 l 214 811 l 82 1006 l 244 1006 l 313 907 "},"Š":{"ha":724,"x_min":0,"x_max":0,"o":"m 365 990 b 665 778 561 990 642 849 l 503 704 b 361 810 482 750 446 810 b 256 717 294 810 256 769 b 678 278 256 556 678 579 b 353 -18 678 107 556 -18 b 31 207 144 -18 58 128 l 196 288 b 364 164 222 224 276 164 b 479 264 436 164 479 201 b 60 714 479 431 60 403 b 365 990 60 878 179 990 m 428 1221 l 590 1221 l 458 1026 l 261 1026 l 129 1221 l 292 1221 l 360 1122 "},"Ĩ":{"ha":382,"x_min":0,"x_max":0,"o":"m 93 972 l 289 972 l 289 0 l 93 0 m 288 1033 b 114 1085 214 1033 161 1085 b 69 1032 86 1085 69 1065 l -51 1032 b 101 1218 -51 1143 10 1218 b 272 1167 178 1218 228 1167 b 317 1219 300 1167 317 1188 l 438 1219 b 288 1033 438 1106 378 1033 "},"Ī":{"ha":382,"x_min":0,"x_max":0,"o":"m 93 972 l 289 972 l 289 0 l 93 0 m 6 1183 l 378 1183 l 378 1043 l 6 1043 "},"Ķ":{"ha":854,"x_min":0,"x_max":0,"o":"m 93 972 l 289 972 l 289 528 l 610 972 l 829 972 l 479 507 l 840 0 l 615 0 l 289 472 l 289 0 l 93 0 m 347 -333 b 415 -243 372 -314 406 -281 b 333 -143 361 -232 333 -186 b 438 -40 333 -86 381 -40 b 546 -160 500 -40 546 -87 b 414 -404 546 -260 490 -351 l 347 -333 "},"ĸ":{"ha":739,"x_min":0,"x_max":0,"o":"m 75 726 l 267 726 l 267 414 l 500 726 l 715 726 l 460 390 l 735 0 l 510 0 l 267 368 l 267 0 l 75 0 "},"ķ":{"ha":739,"x_min":0,"x_max":0,"o":"m 75 1004 l 267 1004 l 267 421 l 500 726 l 715 726 l 460 397 l 735 0 l 510 0 l 267 375 l 267 0 l 75 0 m 283 -333 b 351 -243 308 -314 342 -281 b 269 -143 297 -232 269 -186 b 374 -40 269 -86 317 -40 b 482 -160 436 -40 482 -87 b 350 -404 482 -260 426 -351 l 283 -333 "},"Ĭ":{"ha":382,"x_min":0,"x_max":0,"o":"m 93 972 l 289 972 l 289 0 l 93 0 m 194 1029 b -15 1228 61 1029 -15 1113 l 122 1228 b 194 1142 122 1185 138 1142 b 268 1228 253 1142 268 1185 l 406 1228 b 194 1029 406 1113 331 1029 "},"ȷ":{"ha":343,"x_min":0,"x_max":0,"o":"m 75 726 l 267 726 l 267 -10 b -11 -265 267 -201 146 -265 b -58 -262 -33 -265 -58 -262 l -58 -100 b -25 -103 -58 -100 -39 -103 b 75 -1 44 -103 75 -67 "},"ĵ":{"ha":343,"x_min":0,"x_max":0,"o":"m 75 726 l 267 726 l 267 -10 b -11 -265 267 -201 146 -265 b -58 -262 -33 -265 -58 -262 l -58 -100 b -25 -103 -58 -100 -39 -103 b 75 -1 44 -103 75 -67 m 174 910 l 106 811 l -57 811 l 75 1006 l 272 1006 l 404 811 l 242 811 "},"Ĵ":{"ha":519,"x_min":0,"x_max":0,"o":"m 50 179 b 131 171 61 178 94 171 b 229 276 197 171 229 211 l 229 972 l 425 972 l 425 242 b 156 -8 425 61 306 -8 b 28 6 103 -8 67 -3 m 313 1125 l 244 1026 l 82 1026 l 214 1221 l 411 1221 l 543 1026 l 381 1026 "},"ĳ":{"ha":686,"x_min":0,"x_max":0,"o":"m 75 726 l 267 726 l 267 0 l 75 0 m 58 901 b 169 1011 58 964 107 1011 b 282 901 233 1011 282 964 b 169 792 282 839 233 792 b 58 901 107 792 58 839 m 418 726 l 610 726 l 610 -10 b 332 -265 610 -201 489 -265 b 285 -262 310 -265 285 -262 l 285 -100 b 318 -103 285 -100 304 -103 b 418 -1 388 -103 418 -67 m 401 901 b 513 1011 401 964 450 1011 b 625 901 576 1011 625 964 b 513 792 625 839 576 792 b 401 901 450 792 401 839 "},"Ĳ":{"ha":901,"x_min":0,"x_max":0,"o":"m 93 972 l 289 972 l 289 0 l 93 0 m 433 179 b 514 171 444 178 478 171 b 613 276 581 171 613 211 l 613 972 l 808 972 l 808 242 b 539 -8 808 61 689 -8 b 411 6 486 -8 450 -3 "},"İ":{"ha":382,"x_min":0,"x_max":0,"o":"m 93 972 l 289 972 l 289 0 l 93 0 m 83 1124 b 194 1233 83 1186 132 1233 b 307 1124 258 1233 307 1186 b 194 1014 307 1061 258 1014 b 83 1124 132 1014 83 1061 "},"Ŗ":{"ha":813,"x_min":0,"x_max":0,"o":"m 93 972 l 386 972 b 715 683 599 972 715 843 b 568 426 715 565 657 475 l 799 0 l 582 0 l 393 381 l 289 381 l 289 0 l 93 0 m 381 546 b 514 676 451 546 514 590 b 371 803 514 754 460 803 l 289 803 l 289 546 m 315 -333 b 383 -243 340 -314 374 -281 b 301 -143 329 -232 301 -186 b 406 -40 301 -86 349 -40 b 514 -160 468 -40 514 -87 b 382 -404 514 -260 458 -351 l 315 -333 "},"ŗ":{"ha":500,"x_min":0,"x_max":0,"o":"m 463 550 b 267 317 319 550 267 461 l 267 0 l 75 0 l 75 726 l 263 726 l 263 621 b 463 744 294 693 367 744 m 114 -333 b 182 -243 139 -314 172 -281 b 100 -143 128 -232 100 -186 b 204 -40 100 -86 147 -40 b 313 -160 267 -40 313 -87 b 181 -404 313 -260 257 -351 l 114 -333 "},"ŝ":{"ha":604,"x_min":0,"x_max":0,"o":"m 297 -18 b 26 117 154 -18 65 54 l 139 217 b 306 138 175 175 224 138 b 394 203 360 138 394 161 b 51 529 394 314 51 271 b 315 744 51 664 167 744 b 564 615 453 744 529 672 l 438 521 b 307 590 415 549 375 590 b 232 532 263 590 232 568 b 576 213 232 417 576 472 b 297 -18 576 71 454 -18 m 318 910 l 250 811 l 88 811 l 219 1006 l 417 1006 l 549 811 l 386 811 "},"Ŝ":{"ha":724,"x_min":0,"x_max":0,"o":"m 365 990 b 665 778 561 990 642 849 l 503 704 b 361 810 482 750 446 810 b 256 717 294 810 256 769 b 678 278 256 556 678 579 b 353 -18 678 107 556 -18 b 31 207 144 -18 58 128 l 196 288 b 364 164 222 224 276 164 b 479 264 436 164 479 201 b 60 714 479 431 60 403 b 365 990 60 878 179 990 m 367 1125 l 299 1026 l 136 1026 l 268 1221 l 465 1221 l 597 1026 l 435 1026 "},"ś":{"ha":604,"x_min":0,"x_max":0,"o":"m 297 -18 b 26 117 154 -18 65 54 l 139 217 b 306 138 175 175 224 138 b 394 203 360 138 394 161 b 51 529 394 314 51 271 b 315 744 51 664 167 744 b 564 615 453 744 529 672 l 438 521 b 307 590 415 549 375 590 b 232 532 263 590 232 568 b 576 213 232 417 576 472 b 297 -18 576 71 454 -18 m 299 1007 l 500 1007 l 365 807 l 206 807 "},"Ś":{"ha":724,"x_min":0,"x_max":0,"o":"m 365 990 b 665 778 561 990 642 849 l 503 704 b 361 810 482 750 446 810 b 256 717 294 810 256 769 b 678 278 256 556 678 579 b 353 -18 678 107 556 -18 b 31 207 144 -18 58 128 l 196 288 b 364 164 222 224 276 164 b 479 264 436 164 479 201 b 60 714 479 431 60 403 b 365 990 60 878 179 990 m 356 1225 l 557 1225 l 422 1025 l 263 1025 "},"ř":{"ha":500,"x_min":0,"x_max":0,"o":"m 463 550 b 267 317 319 550 267 461 l 267 0 l 75 0 l 75 726 l 263 726 l 263 621 b 463 744 294 693 367 744 m 319 1006 l 482 1006 l 350 811 l 153 811 l 21 1006 l 183 1006 l 251 907 "},"Ř":{"ha":813,"x_min":0,"x_max":0,"o":"m 93 972 l 386 972 b 715 683 599 972 715 843 b 568 426 715 565 657 475 l 799 0 l 582 0 l 393 381 l 289 381 l 289 0 l 93 0 m 381 546 b 514 676 451 546 514 590 b 371 803 514 754 460 803 l 289 803 l 289 546 m 440 1221 l 603 1221 l 471 1026 l 274 1026 l 142 1221 l 304 1221 l 372 1122 "},"ŕ":{"ha":500,"x_min":0,"x_max":0,"o":"m 463 550 b 267 317 319 550 267 461 l 267 0 l 75 0 l 75 726 l 263 726 l 263 621 b 463 744 294 693 367 744 m 251 1007 l 453 1007 l 318 807 l 158 807 "},"Ŕ":{"ha":813,"x_min":0,"x_max":0,"o":"m 93 972 l 386 972 b 715 683 599 972 715 843 b 568 426 715 565 657 475 l 799 0 l 582 0 l 393 381 l 289 381 l 289 0 l 93 0 m 381 546 b 514 676 451 546 514 590 b 371 803 514 754 460 803 l 289 803 l 289 546 m 368 1225 l 569 1225 l 435 1025 l 275 1025 "},"ő":{"ha":851,"x_min":0,"x_max":0,"o":"m 35 361 b 425 744 35 582 204 744 b 817 361 647 744 817 581 b 425 -18 817 142 653 -18 b 35 361 199 -18 35 142 m 226 361 b 425 151 226 238 311 151 b 625 361 540 151 625 238 b 425 575 625 485 540 575 b 226 361 310 575 226 486 m 569 1007 l 753 1007 l 619 807 l 475 807 m 326 1007 l 511 1007 l 376 807 l 233 807 "},"Ő":{"ha":1094,"x_min":0,"x_max":0,"o":"m 547 -18 b 42 486 249 -18 42 200 b 547 990 42 769 249 990 b 1053 486 846 990 1053 769 b 547 -18 1053 200 846 -18 m 547 807 b 246 486 372 807 246 669 b 547 165 246 300 372 165 b 849 486 722 165 849 300 b 547 807 849 669 722 807 m 671 1225 l 854 1225 l 721 1025 l 576 1025 m 428 1225 l 613 1225 l 478 1025 l 335 1025 "},"Ŏ":{"ha":1094,"x_min":0,"x_max":0,"o":"m 547 -18 b 42 486 249 -18 42 200 b 547 990 42 769 249 990 b 1053 486 846 990 1053 769 b 547 -18 1053 200 846 -18 m 547 807 b 246 486 372 807 246 669 b 547 165 246 300 372 165 b 849 486 722 165 849 300 b 547 807 849 669 722 807 m 547 1029 b 338 1228 414 1029 338 1113 l 475 1228 b 547 1142 475 1185 490 1142 b 621 1228 606 1142 621 1185 l 758 1228 b 547 1029 758 1113 683 1029 "},"ō":{"ha":851,"x_min":0,"x_max":0,"o":"m 35 361 b 425 744 35 582 204 744 b 817 361 647 744 817 581 b 425 -18 817 142 653 -18 b 35 361 199 -18 35 142 m 226 361 b 425 151 226 238 311 151 b 625 361 540 151 625 238 b 425 575 625 485 540 575 b 226 361 310 575 226 486 m 240 978 l 613 978 l 613 838 l 240 838 "},"Ĺ":{"ha":632,"x_min":0,"x_max":0,"o":"m 93 972 l 289 972 l 289 176 l 606 176 l 606 0 l 93 0 m 204 1225 l 406 1225 l 271 1025 l 111 1025 "},"ĺ":{"ha":343,"x_min":0,"x_max":0,"o":"m 75 1004 l 267 1004 l 267 0 l 75 0 m 175 1242 l 376 1242 l 242 1042 l 82 1042 "},"ļ":{"ha":343,"x_min":0,"x_max":0,"o":"m 75 1004 l 267 1004 l 267 0 l 75 0 m 78 -333 b 146 -243 103 -314 136 -281 b 64 -143 92 -232 64 -186 b 168 -40 64 -86 111 -40 b 276 -160 231 -40 276 -87 b 144 -404 276 -260 221 -351 l 78 -333 "},"Ļ":{"ha":632,"x_min":0,"x_max":0,"o":"m 93 972 l 289 972 l 289 176 l 606 176 l 606 0 l 93 0 m 257 -333 b 325 -243 282 -314 315 -281 b 243 -143 271 -232 243 -186 b 347 -40 243 -86 290 -40 b 456 -160 410 -40 456 -87 b 324 -404 456 -260 400 -351 l 257 -333 "},"Ľ":{"ha":632,"x_min":0,"x_max":0,"o":"m 392 972 l 572 972 l 508 731 l 382 731 m 93 972 l 289 972 l 289 176 l 606 176 l 606 0 l 93 0 "},"ľ":{"ha":343,"x_min":0,"x_max":0,"o":"m 321 1004 l 501 1004 l 438 763 l 311 763 m 75 1004 l 267 1004 l 267 0 l 75 0 "},"ŀ":{"ha":560,"x_min":0,"x_max":0,"o":"m 75 1004 l 267 1004 l 267 0 l 75 0 m 436 374 b 318 490 369 374 318 426 b 436 610 318 556 369 610 b 554 490 503 610 554 556 b 436 374 554 426 503 374 "},"Ŀ":{"ha":632,"x_min":0,"x_max":0,"o":"m 93 972 l 289 972 l 289 176 l 606 176 l 606 0 l 93 0 m 499 393 b 381 510 432 393 381 446 b 499 629 381 575 432 629 b 617 510 565 629 617 575 b 499 393 617 446 565 393 "},"Ł":{"ha":632,"x_min":0,"x_max":0,"o":"m 15 449 l 93 493 l 93 972 l 289 972 l 289 601 l 439 688 l 439 501 l 289 418 l 289 175 l 606 175 l 606 0 l 93 0 l 93 311 l 15 265 "},"ł":{"ha":408,"x_min":0,"x_max":0,"o":"m 29 514 l 103 558 l 103 1004 l 294 1004 l 294 671 l 379 722 l 379 535 l 294 483 l 294 0 l 103 0 l 103 375 l 29 331 "},"Ō":{"ha":1094,"x_min":0,"x_max":0,"o":"m 547 -18 b 42 486 249 -18 42 200 b 547 990 42 769 249 990 b 1053 486 846 990 1053 769 b 547 -18 1053 200 846 -18 m 547 807 b 246 486 372 807 246 669 b 547 165 246 300 372 165 b 849 486 722 165 849 300 b 547 807 849 669 722 807 m 361 1183 l 733 1183 l 733 1043 l 361 1043 "},"Ń":{"ha":990,"x_min":0,"x_max":0,"o":"m 285 658 l 285 0 l 92 0 l 92 972 l 290 972 l 706 308 l 706 972 l 899 972 l 899 0 l 704 0 m 504 1225 l 706 1225 l 571 1025 l 411 1025 "},"ń":{"ha":778,"x_min":0,"x_max":0,"o":"m 457 744 b 708 419 664 744 708 574 l 708 0 l 517 0 l 517 442 b 396 572 517 522 461 572 b 267 436 317 572 267 514 l 267 0 l 75 0 l 75 726 l 263 726 l 263 642 b 457 744 293 692 363 744 m 393 1007 l 594 1007 l 460 807 l 300 807 "},"Ņ":{"ha":990,"x_min":0,"x_max":0,"o":"m 285 658 l 285 0 l 92 0 l 92 972 l 290 972 l 706 308 l 706 972 l 899 972 l 899 0 l 704 0 m 401 -333 b 469 -243 426 -314 460 -281 b 388 -143 415 -232 388 -186 b 492 -40 388 -86 435 -40 b 600 -160 554 -40 600 -87 b 468 -404 600 -260 544 -351 l 401 -333 "},"ņ":{"ha":778,"x_min":0,"x_max":0,"o":"m 457 744 b 708 419 664 744 708 574 l 708 0 l 517 0 l 517 442 b 396 572 517 522 461 572 b 267 436 317 572 267 514 l 267 0 l 75 0 l 75 726 l 263 726 l 263 642 b 457 744 293 692 363 744 m 296 -333 b 364 -243 321 -314 354 -281 b 282 -143 310 -232 282 -186 b 386 -40 282 -86 329 -40 b 494 -160 449 -40 494 -87 b 363 -404 494 -260 439 -351 l 296 -333 "},"Ň":{"ha":990,"x_min":0,"x_max":0,"o":"m 285 658 l 285 0 l 92 0 l 92 972 l 290 972 l 706 308 l 706 972 l 899 972 l 899 0 l 704 0 m 571 1221 l 733 1221 l 601 1026 l 404 1026 l 272 1221 l 435 1221 l 503 1122 "},"ň":{"ha":778,"x_min":0,"x_max":0,"o":"m 457 744 b 708 419 664 744 708 574 l 708 0 l 517 0 l 517 442 b 396 572 517 522 461 572 b 267 436 317 572 267 514 l 267 0 l 75 0 l 75 726 l 263 726 l 263 642 b 457 744 293 692 363 744 m 461 1006 l 624 1006 l 492 811 l 294 811 l 163 1006 l 325 1006 l 393 907 "},"ŉ":{"ha":883,"x_min":0,"x_max":0,"o":"m 561 744 b 813 419 768 744 813 574 l 813 0 l 621 0 l 621 442 b 500 572 621 522 565 572 b 371 436 421 572 371 514 l 371 0 l 179 0 l 179 726 l 367 726 l 367 642 b 561 744 397 692 467 744 m -32 718 b 36 808 -7 738 26 771 b -46 908 -18 819 -46 865 b 58 1011 -46 965 1 1011 b 167 892 121 1011 167 964 b 35 647 167 792 111 700 l -32 718 "},"ģ":{"ha":854,"x_min":0,"x_max":0,"o":"m 186 -53 b 393 -103 210 -65 293 -103 b 593 42 497 -103 593 -71 l 593 75 b 381 -18 578 54 507 -18 b 33 363 171 -18 33 139 b 388 744 33 586 181 744 b 604 650 510 744 583 678 l 604 726 l 785 726 l 785 92 b 394 -267 785 -179 608 -267 b 128 -200 294 -267 193 -236 m 599 364 b 411 575 599 488 524 575 b 226 364 303 575 226 492 b 413 151 226 236 304 151 b 599 364 524 151 599 235 m 513 1086 b 444 996 488 1067 454 1033 b 526 896 499 985 526 939 b 422 793 526 839 479 793 b 314 913 360 793 314 840 b 446 1157 314 1013 369 1104 l 513 1086 "},"í":{"ha":343,"x_min":0,"x_max":0,"o":"m 160 1007 l 361 1007 l 226 807 l 67 807 m 75 726 l 267 726 l 267 0 l 75 0 "},"ï":{"ha":343,"x_min":0,"x_max":0,"o":"m 43 813 b -51 907 -12 813 -51 854 b 43 1001 -51 958 -12 1001 b 138 907 97 1001 138 958 b 43 813 138 854 97 813 m 310 813 b 215 907 253 813 215 854 b 310 1001 215 958 253 1001 b 404 907 364 1001 404 958 b 310 813 404 854 364 813 m 75 726 l 267 726 l 267 0 l 75 0 "},"î":{"ha":343,"x_min":0,"x_max":0,"o":"m 75 726 l 267 726 l 267 0 l 75 0 m 176 910 l 108 811 l -54 811 l 78 1006 l 275 1006 l 407 811 l 244 811 "},"ì":{"ha":343,"x_min":0,"x_max":0,"o":"m 275 807 l 115 807 l -19 1007 l 182 1007 m 75 726 l 267 726 l 267 0 l 75 0 "},"ĩ":{"ha":342,"x_min":0,"x_max":0,"o":"m 268 815 b 94 867 194 815 142 867 b 50 814 67 867 50 847 l -71 814 b 82 1000 -71 925 -10 1000 b 253 949 158 1000 208 949 b 297 1001 281 949 297 969 l 418 1001 b 268 815 418 888 358 815 m 75 726 l 267 726 l 267 0 l 75 0 "},"ĭ":{"ha":342,"x_min":0,"x_max":0,"o":"m 175 807 b -35 1006 42 807 -35 890 l 103 1006 b 175 919 103 963 118 919 b 249 1006 233 919 249 963 l 386 1006 b 175 807 386 890 311 807 m 75 726 l 267 726 l 267 0 l 75 0 "},"ī":{"ha":343,"x_min":0,"x_max":0,"o":"m -14 978 l 358 978 l 358 838 l -14 838 m 75 726 l 267 726 l 267 0 l 75 0 "},"Œ":{"ha":1426,"x_min":0,"x_max":0,"o":"m 547 -18 b 42 486 249 -18 42 200 b 547 990 42 769 249 990 b 689 972 597 990 644 983 l 1350 972 l 1350 796 l 950 796 b 1044 579 999 736 1031 661 l 1307 579 l 1307 406 l 1046 406 b 950 175 1035 317 1000 239 l 1363 175 l 1363 0 l 689 0 b 547 -18 644 -11 597 -18 m 547 807 b 246 486 372 807 246 669 b 547 165 246 300 372 165 b 849 486 722 165 849 300 b 547 807 849 669 722 807 "},"ŏ":{"ha":851,"x_min":0,"x_max":0,"o":"m 35 361 b 425 744 35 582 204 744 b 817 361 647 744 817 581 b 425 -18 817 142 653 -18 b 35 361 199 -18 35 142 m 226 361 b 425 151 226 238 311 151 b 625 361 540 151 625 238 b 425 575 625 485 540 575 b 226 361 310 575 226 486 m 421 807 b 211 1006 288 807 211 890 l 349 1006 b 421 919 349 963 364 919 b 494 1006 479 919 494 963 l 632 1006 b 421 807 632 890 557 807 "},"ç":{"ha":681,"x_min":0,"x_max":0,"o":"m 351 -324 b 271 -311 324 -324 285 -315 l 293 -212 b 339 -219 304 -215 321 -219 b 399 -174 371 -219 399 -206 b 329 -131 399 -143 364 -131 b 306 -133 318 -131 306 -133 l 324 -7 b 35 361 150 31 35 174 b 421 744 35 582 200 744 b 650 667 528 744 603 703 l 596 506 b 426 575 564 535 508 575 b 226 363 303 575 226 479 b 433 151 226 239 313 151 b 597 217 507 151 565 190 l 649 60 b 422 -18 607 26 528 -18 l 417 -54 b 522 -182 485 -68 522 -121 b 351 -324 522 -272 446 -324 "},"$":{"ha":724,"x_min":0,"x_max":0,"o":"m 308 -15 b 31 207 132 3 56 133 l 196 288 b 364 164 222 224 276 164 b 479 264 436 164 479 201 b 60 714 479 431 60 403 b 308 986 60 860 154 965 l 308 1064 l 428 1064 l 428 985 b 665 778 578 958 644 840 l 503 704 b 361 810 482 750 446 810 b 256 717 294 810 256 769 b 678 278 256 556 678 579 b 428 -11 678 129 585 15 l 428 -118 l 308 -118 "},"Ç":{"ha":886,"x_min":0,"x_max":0,"o":"m 458 -324 b 378 -311 431 -324 392 -315 l 400 -212 b 446 -219 411 -215 428 -219 b 506 -174 478 -219 506 -206 b 436 -131 506 -143 471 -131 b 413 -133 425 -131 413 -133 l 431 -7 b 42 486 193 42 42 239 b 549 990 42 772 256 990 b 838 901 678 990 775 947 l 782 729 b 549 807 735 763 647 807 b 246 486 372 807 246 669 b 549 165 246 300 372 165 b 790 244 654 165 744 213 l 846 74 b 549 -18 788 31 690 -18 b 529 -17 542 -18 529 -17 l 524 -54 b 629 -182 592 -68 629 -121 b 458 -324 629 -272 553 -324 "},"¢":{"ha":681,"x_min":0,"x_max":0,"o":"m 365 90 b 35 467 169 115 35 264 b 365 846 35 668 172 821 l 365 972 l 486 972 l 486 844 b 650 772 558 832 613 800 l 596 611 b 426 681 564 640 508 681 b 226 468 303 681 226 585 b 433 257 226 344 313 257 b 597 322 507 257 565 296 l 649 165 b 486 93 615 139 560 106 l 486 0 l 365 0 "},"Ą":{"ha":917,"x_min":0,"x_max":0,"o":"m 671 -150 b 778 0 671 -72 736 -19 l 708 0 l 624 250 l 293 250 l 208 0 l 11 0 l 356 972 l 561 972 l 906 0 b 829 -89 889 -7 829 -36 b 901 -144 829 -126 868 -144 l 901 -281 b 853 -286 892 -283 871 -286 b 671 -150 767 -286 671 -260 m 458 763 l 346 413 l 572 413 "},"æ":{"ha":1208,"x_min":0,"x_max":0,"o":"m 225 231 b 351 131 225 171 279 131 b 475 231 424 131 475 169 b 350 332 475 294 424 332 b 225 231 276 332 225 290 m 981 440 b 825 588 976 529 914 588 b 669 440 736 588 678 524 m 664 315 b 853 149 668 218 744 149 b 1029 238 951 149 1008 207 l 1156 142 b 850 -18 1128 90 1031 -18 b 561 103 726 -18 625 25 b 306 -18 518 36 443 -18 b 33 225 158 -18 33 72 b 315 465 33 368 146 465 b 472 425 389 465 446 443 l 472 472 b 340 579 472 536 425 579 b 147 528 268 579 201 556 b 75 658 122 571 99 615 b 361 744 143 703 240 744 b 593 653 476 744 550 708 b 822 744 651 711 732 744 b 1176 357 1049 744 1176 594 b 1175 315 1176 343 1176 329 l 664 315 "},"Ø":{"ha":1094,"x_min":0,"x_max":0,"o":"m 547 -18 b 282 49 447 -18 357 6 l 217 -33 l 113 50 l 178 132 b 42 486 92 221 42 346 b 547 990 42 769 249 990 b 807 925 644 990 732 967 l 871 1006 l 976 922 l 913 843 b 1053 486 1001 753 1053 626 b 547 -18 1053 200 846 -18 m 849 486 b 788 685 849 563 826 631 l 403 200 b 547 165 444 178 493 165 b 849 486 722 165 849 300 m 547 807 b 246 486 372 807 246 669 b 303 290 246 410 267 343 l 686 774 b 547 807 646 794 599 807 "},"¥":{"ha":811,"x_min":0,"x_max":0,"o":"m 313 219 l 99 219 l 99 346 l 313 346 l 313 444 l 99 444 l 99 571 l 240 571 l 14 972 l 235 972 l 410 624 l 585 972 l 806 972 l 578 571 l 711 571 l 711 444 l 507 444 l 507 346 l 711 346 l 711 219 l 507 219 l 507 0 l 313 0 "},"ø":{"ha":851,"x_min":0,"x_max":0,"o":"m 35 361 b 425 744 35 582 204 744 b 618 697 496 744 561 728 l 671 764 l 763 693 l 711 628 b 817 361 776 560 817 467 b 425 -18 817 142 653 -18 b 235 25 354 -18 290 -3 l 181 -44 l 90 26 l 142 92 b 35 361 75 160 35 253 m 226 361 b 258 240 226 314 238 274 l 508 557 b 425 575 483 568 456 575 b 226 361 310 575 226 486 m 625 361 b 594 479 625 406 614 446 l 347 165 b 425 151 371 156 397 151 b 625 361 540 151 625 238 "},"ą":{"ha":731,"x_min":0,"x_max":0,"o":"m 429 -150 b 536 0 429 -72 494 -19 l 494 0 l 482 47 b 306 -18 444 7 389 -18 b 33 225 158 -18 33 72 b 315 465 33 368 146 465 b 472 425 389 465 446 443 l 472 472 b 340 579 472 536 425 579 b 147 528 268 579 201 556 l 75 658 b 361 744 140 703 250 744 b 664 460 594 744 664 622 l 664 0 b 588 -89 647 -7 588 -36 b 660 -144 588 -126 626 -144 l 660 -281 b 611 -286 650 -283 629 -286 b 429 -150 525 -286 429 -260 m 225 231 b 351 131 225 171 279 131 b 476 231 424 131 476 169 b 350 332 476 294 424 332 b 225 231 276 332 225 290 "},"ę":{"ha":776,"x_min":0,"x_max":0,"o":"m 356 -150 b 432 -18 356 -89 394 -44 l 418 -18 b 36 361 185 -18 36 143 b 392 744 36 581 185 744 b 744 357 617 744 744 594 b 743 315 744 343 744 329 l 232 315 b 421 149 236 218 314 149 b 597 238 519 149 576 207 l 724 142 b 618 36 708 115 674 72 b 514 -86 558 -3 514 -37 b 586 -144 514 -124 550 -144 l 586 -281 b 538 -286 576 -283 556 -286 b 356 -150 451 -286 356 -260 m 550 440 b 394 588 546 529 482 588 b 238 440 304 588 246 524 "},"Ę":{"ha":668,"x_min":0,"x_max":0,"o":"m 93 972 l 593 972 l 593 796 l 289 796 l 289 579 l 550 579 l 550 406 l 289 406 l 289 175 l 606 175 l 606 0 b 529 -89 589 -7 529 -36 b 601 -144 529 -126 568 -144 l 601 -281 b 553 -286 592 -283 571 -286 b 371 -150 467 -286 371 -260 b 478 0 371 -72 436 -19 l 93 0 "},"№":{"ha":1594,"x_min":0,"x_max":0,"o":"m 1139 736 b 1257 618 1139 674 1185 618 b 1375 736 1326 618 1375 674 b 1257 857 1375 799 1329 857 b 1139 736 1185 857 1139 799 m 1000 736 b 1257 990 1000 871 1106 990 b 1514 736 1408 990 1514 871 b 1257 485 1514 601 1408 485 b 1000 736 1106 485 1000 601 m 1024 417 l 1489 417 l 1489 263 l 1024 263 m 285 661 l 285 0 l 92 0 l 92 972 l 290 972 l 706 306 l 706 972 l 899 972 l 899 0 l 704 0 "},"đ":{"ha":861,"x_min":0,"x_max":0,"o":"m 786 914 l 867 914 l 867 790 l 786 790 l 786 0 l 606 0 l 606 75 b 390 -18 586 51 514 -18 b 35 363 182 -18 35 139 b 379 744 35 588 171 744 b 594 650 504 744 576 675 l 594 790 l 418 790 l 418 914 l 594 914 l 594 1004 l 786 1004 m 600 361 b 414 575 600 497 519 575 b 228 361 303 575 228 488 b 414 151 228 232 306 151 b 600 361 531 151 600 246 "},"Ų":{"ha":961,"x_min":0,"x_max":0,"o":"m 438 -150 b 515 -17 438 -89 478 -43 b 481 -18 515 -17 492 -18 b 89 365 229 -18 89 136 l 89 972 l 285 972 l 285 365 b 481 164 285 242 356 164 b 676 365 606 164 676 242 l 676 972 l 872 972 l 872 365 b 672 19 872 203 801 79 b 596 -79 643 6 596 -28 b 668 -144 596 -119 635 -144 l 668 -281 b 619 -286 658 -283 638 -286 b 438 -150 533 -286 438 -260 "},"ų":{"ha":772,"x_min":0,"x_max":0,"o":"m 468 -150 b 575 0 468 -72 533 -19 l 515 0 l 515 85 b 321 -18 485 35 415 -18 b 69 307 114 -18 69 153 l 69 726 l 261 726 l 261 285 b 382 154 261 204 317 154 b 511 290 461 154 511 213 l 511 726 l 703 726 l 703 0 b 626 -89 686 -7 626 -36 b 699 -144 626 -126 665 -144 l 699 -281 b 650 -286 689 -283 668 -286 b 468 -150 564 -286 468 -260 "},"ŧ":{"ha":463,"x_min":0,"x_max":0,"o":"m 93 879 l 282 879 l 282 726 l 418 726 l 418 571 l 282 571 l 282 460 l 407 460 l 407 333 l 282 333 l 282 290 b 389 160 282 182 315 160 b 424 161 401 160 408 160 l 424 -3 b 342 -10 424 -3 394 -10 b 92 285 168 -10 92 88 l 92 333 l 15 333 l 15 460 l 92 460 l 92 571 l 15 571 l 15 726 l 93 726 "},"Į":{"ha":382,"x_min":0,"x_max":0,"o":"m 93 972 l 289 972 l 289 0 b 213 -89 272 -7 213 -36 b 285 -144 213 -126 251 -144 l 285 -281 b 236 -286 275 -283 254 -286 b 54 -150 150 -286 54 -260 b 161 0 54 -72 119 -19 l 93 0 "},"į":{"ha":343,"x_min":0,"x_max":0,"o":"m 75 726 l 267 726 l 267 0 b 190 -89 250 -7 190 -36 b 263 -144 190 -126 229 -144 l 263 -281 b 214 -286 253 -283 232 -286 b 32 -150 128 -286 32 -260 b 139 0 32 -72 97 -19 l 75 0 m 58 901 b 169 1011 58 964 107 1011 b 282 901 233 1011 282 964 b 169 792 282 839 233 792 b 58 901 107 792 58 839 "},"Ş":{"ha":724,"x_min":0,"x_max":0,"o":"m 333 -324 b 253 -311 306 -324 267 -315 l 275 -212 b 321 -219 286 -215 303 -219 b 381 -174 353 -219 381 -206 b 311 -131 381 -143 346 -131 b 288 -133 300 -131 288 -133 l 304 -15 b 31 207 131 4 56 133 l 196 288 b 364 164 222 224 276 164 b 479 264 436 164 479 201 b 60 714 479 431 60 403 b 365 990 60 878 179 990 b 665 778 561 990 642 849 l 503 704 b 361 810 482 750 446 810 b 256 717 294 810 256 769 b 678 278 256 556 678 579 b 404 -15 678 122 576 4 l 399 -54 b 504 -182 467 -68 504 -121 b 333 -324 504 -272 428 -324 "},"ş":{"ha":604,"x_min":0,"x_max":0,"o":"m 275 -324 b 194 -311 247 -324 208 -315 l 217 -212 b 263 -219 228 -215 244 -219 b 322 -174 294 -219 322 -206 b 253 -131 322 -143 288 -131 b 229 -133 242 -131 229 -133 l 246 -14 b 26 117 132 0 60 61 l 139 217 b 306 138 175 175 224 138 b 394 203 360 138 394 161 b 51 529 394 314 51 271 b 315 744 51 664 167 744 b 564 615 453 744 529 672 l 438 521 b 307 590 415 549 375 590 b 232 532 263 590 232 568 b 576 213 232 417 576 472 b 346 -14 576 86 479 1 l 340 -54 b 446 -182 408 -68 446 -121 b 275 -324 446 -272 369 -324 "},"ŋ":{"ha":778,"x_min":0,"x_max":0,"o":"m 517 442 b 396 572 517 522 461 572 b 267 436 317 572 267 514 l 267 0 l 75 0 l 75 726 l 263 726 l 263 642 b 457 744 293 692 363 744 b 708 419 664 744 708 574 l 708 -10 b 431 -265 708 -201 588 -265 b 383 -262 408 -265 383 -262 l 383 -100 b 417 -103 383 -100 403 -103 b 517 -1 486 -103 517 -67 "},"Ŋ":{"ha":990,"x_min":0,"x_max":0,"o":"m 524 -78 b 604 -86 535 -79 568 -86 b 701 6 665 -86 697 -50 l 285 661 l 285 0 l 92 0 l 92 972 l 290 972 l 706 306 l 706 972 l 899 972 l 899 -15 b 629 -265 899 -196 779 -265 b 501 -251 576 -265 540 -260 "},"ĥ":{"ha":781,"x_min":0,"x_max":0,"o":"m 458 744 b 710 419 667 744 710 574 l 710 0 l 519 0 l 519 442 b 399 572 519 522 464 572 b 267 436 318 572 267 514 l 267 0 l 75 0 l 75 1004 l 267 1004 l 267 642 b 458 744 297 692 364 744 m 413 1125 l 344 1026 l 182 1026 l 314 1221 l 511 1221 l 643 1026 l 481 1026 "},"Ħ":{"ha":982,"x_min":0,"x_max":0,"o":"m 93 710 l 14 710 l 14 843 l 93 843 l 93 972 l 289 972 l 289 843 l 693 843 l 693 972 l 889 972 l 889 843 l 969 843 l 969 710 l 889 710 l 889 0 l 693 0 l 693 401 l 289 401 l 289 0 l 93 0 m 693 578 l 693 710 l 289 710 l 289 578 "},"ħ":{"ha":781,"x_min":0,"x_max":0,"o":"m 458 744 b 710 419 667 744 710 574 l 710 0 l 519 0 l 519 442 b 399 572 519 522 464 572 b 267 436 318 572 267 514 l 267 0 l 75 0 l 75 799 l 4 799 l 4 921 l 75 921 l 75 1004 l 267 1004 l 267 921 l 447 921 l 447 799 l 267 799 l 267 642 b 458 744 297 692 364 744 "},"Ǻ":{"ha":917,"x_min":0,"x_max":0,"o":"m 293 250 l 208 0 l 11 0 l 343 939 b 310 1031 322 963 310 994 b 457 1168 310 1113 374 1168 b 607 1032 543 1168 607 1113 b 572 939 607 994 594 963 l 906 0 l 708 0 l 624 250 m 458 763 l 346 413 l 572 413 m 460 1407 l 661 1407 l 526 1207 l 367 1207 m 458 976 b 511 1032 490 976 511 999 b 458 1085 511 1063 490 1085 b 406 1031 426 1085 406 1063 b 458 976 406 999 426 976 "},"ǻ":{"ha":731,"x_min":0,"x_max":0,"o":"m 33 225 b 315 465 33 368 146 465 b 472 425 389 465 446 443 l 472 472 b 340 579 472 536 425 579 b 147 528 268 579 201 556 l 75 658 b 361 744 140 703 250 744 b 664 460 594 744 664 622 l 664 0 l 494 0 l 482 47 b 306 -18 444 7 389 -18 b 33 225 158 -18 33 72 m 225 231 b 351 131 225 171 279 131 b 476 231 424 131 476 169 b 350 332 476 294 424 332 b 225 231 276 332 225 290 m 364 774 b 217 911 281 774 217 831 b 364 1049 217 993 281 1049 b 514 913 450 1049 514 993 b 364 774 514 831 450 774 m 365 857 b 418 913 397 857 418 879 b 365 965 418 943 397 965 b 313 911 333 965 313 943 b 365 857 313 879 333 857 m 364 1275 l 565 1275 l 431 1075 l 271 1075 "},"Ǽ":{"ha":1190,"x_min":0,"x_max":0,"o":"m 518 972 l 1115 972 l 1115 796 l 813 796 l 813 579 l 1072 579 l 1072 406 l 813 406 l 813 175 l 1128 175 l 1128 0 l 617 0 l 617 250 l 350 250 l 224 0 l 11 0 m 422 413 l 617 413 l 617 782 l 610 782 m 713 1225 l 914 1225 l 779 1025 l 619 1025 "},"ǽ":{"ha":1208,"x_min":0,"x_max":0,"o":"m 225 231 b 351 131 225 171 279 131 b 475 231 424 131 475 169 b 350 332 475 294 424 332 b 225 231 276 332 225 290 m 981 440 b 825 588 976 529 914 588 b 669 440 736 588 678 524 m 664 315 b 853 149 668 218 744 149 b 1029 238 951 149 1008 207 l 1156 142 b 850 -18 1128 90 1031 -18 b 561 103 726 -18 625 25 b 306 -18 518 36 443 -18 b 33 225 158 -18 33 72 b 315 465 33 368 146 465 b 472 425 389 465 446 443 l 472 472 b 340 579 472 536 425 579 b 147 528 268 579 201 556 b 75 658 122 571 99 615 b 361 744 143 703 240 744 b 593 653 476 744 550 708 b 822 744 651 711 732 744 b 1176 357 1049 744 1176 594 b 1175 315 1176 343 1176 329 l 664 315 m 597 1007 l 799 1007 l 664 807 l 504 807 "},"Ǿ":{"ha":1094,"x_min":0,"x_max":0,"o":"m 547 -18 b 282 49 447 -18 357 6 l 217 -33 l 113 50 l 178 132 b 42 486 92 221 42 346 b 547 990 42 769 249 990 b 807 925 644 990 732 967 l 871 1006 l 976 922 l 913 843 b 1053 486 1001 753 1053 626 b 547 -18 1053 200 846 -18 m 849 486 b 788 685 849 563 826 631 l 403 200 b 547 165 444 178 493 165 b 849 486 722 165 849 300 m 547 807 b 246 486 372 807 246 669 b 303 290 246 410 267 343 l 686 774 b 547 807 646 794 599 807 m 542 1225 l 743 1225 l 608 1025 l 449 1025 "},"ǿ":{"ha":851,"x_min":0,"x_max":0,"o":"m 35 361 b 425 744 35 582 204 744 b 618 697 496 744 561 728 l 671 764 l 763 693 l 711 628 b 817 361 776 560 817 467 b 425 -18 817 142 653 -18 b 235 25 354 -18 290 -3 l 181 -44 l 90 26 l 142 92 b 35 361 75 160 35 253 m 226 361 b 258 240 226 314 238 274 l 508 557 b 425 575 483 568 456 575 b 226 361 310 575 226 486 m 625 361 b 594 479 625 406 614 446 l 347 165 b 425 151 371 156 397 151 b 625 361 540 151 625 238 m 417 1007 l 618 1007 l 483 807 l 324 807 "},"Ẁ":{"ha":1354,"x_min":0,"x_max":0,"o":"m 678 671 l 494 0 l 274 0 l 13 972 l 226 972 l 394 244 l 588 972 l 768 972 l 961 244 l 1131 972 l 1343 972 l 1083 0 l 861 0 m 743 1025 l 583 1025 l 449 1225 l 650 1225 "},"ẁ":{"ha":1150,"x_min":0,"x_max":0,"o":"m 575 465 l 440 0 l 226 0 l 10 726 l 218 726 l 346 211 l 485 726 l 665 726 l 803 211 l 932 726 l 1140 726 l 922 0 l 708 0 m 650 807 l 490 807 l 356 1007 l 557 1007 "},"Ẃ":{"ha":1356,"x_min":0,"x_max":0,"o":"m 678 671 l 494 0 l 274 0 l 13 972 l 226 972 l 394 244 l 588 972 l 768 972 l 961 244 l 1131 972 l 1343 972 l 1083 0 l 861 0 m 685 1225 l 886 1225 l 751 1025 l 592 1025 "},"ẃ":{"ha":1150,"x_min":0,"x_max":0,"o":"m 575 465 l 440 0 l 226 0 l 10 726 l 218 726 l 346 211 l 485 726 l 665 726 l 803 211 l 932 726 l 1140 726 l 922 0 l 708 0 m 592 1007 l 793 1007 l 658 807 l 499 807 "},"Ẅ":{"ha":1356,"x_min":0,"x_max":0,"o":"m 678 671 l 494 0 l 274 0 l 13 972 l 226 972 l 394 244 l 588 972 l 768 972 l 961 244 l 1131 972 l 1343 972 l 1083 0 l 861 0 m 546 1033 b 451 1128 490 1033 451 1075 b 546 1222 451 1179 490 1222 b 640 1128 600 1222 640 1179 b 546 1033 640 1075 600 1033 m 813 1033 b 718 1128 756 1033 718 1075 b 813 1222 718 1179 756 1222 b 907 1128 867 1222 907 1179 b 813 1033 907 1075 867 1033 "},"ẅ":{"ha":1150,"x_min":0,"x_max":0,"o":"m 575 465 l 440 0 l 226 0 l 10 726 l 218 726 l 346 211 l 485 726 l 665 726 l 803 211 l 932 726 l 1140 726 l 922 0 l 708 0 m 440 813 b 346 907 385 813 346 854 b 440 1001 346 958 385 1001 b 535 907 494 1001 535 958 b 440 813 535 854 494 813 m 707 813 b 613 907 650 813 613 854 b 707 1001 613 958 650 1001 b 801 907 761 1001 801 958 b 707 813 801 854 761 813 "},"Ỳ":{"ha":811,"x_min":0,"x_max":0,"o":"m 308 444 l 10 972 l 231 972 l 406 624 l 581 972 l 801 972 l 503 444 l 503 0 l 308 0 m 506 1025 l 346 1025 l 211 1225 l 413 1225 "},"ỳ":{"ha":750,"x_min":0,"x_max":0,"o":"m 186 -249 l 288 18 l 8 726 l 214 726 l 376 253 l 540 726 l 740 726 l 369 -249 m 478 807 l 318 807 l 183 1007 l 385 1007 "},"Ț":{"ha":710,"x_min":0,"x_max":0,"o":"m 257 796 l 29 796 l 29 972 l 679 972 l 679 796 l 453 796 l 453 0 l 257 0 m 258 -333 b 326 -243 283 -314 317 -281 b 244 -143 272 -232 244 -186 b 349 -40 244 -86 292 -40 b 457 -160 411 -40 457 -87 b 325 -404 457 -260 401 -351 l 258 -333 "},"ț":{"ha":463,"x_min":0,"x_max":0,"o":"m 93 879 l 282 879 l 282 726 l 418 726 l 418 571 l 282 571 l 282 290 b 389 160 282 182 315 160 b 424 161 401 160 408 160 l 424 -3 b 342 -10 424 -3 394 -10 b 92 285 168 -10 92 88 l 92 571 l 15 571 l 15 726 l 93 726 m 183 -333 b 251 -243 208 -314 242 -281 b 169 -143 197 -232 169 -186 b 274 -40 169 -86 217 -40 b 382 -160 336 -40 382 -87 b 250 -404 382 -260 326 -351 l 183 -333 "}}}
